<svg width="200" height="360" version="1.1" viewBox="0 0 52.916665 95.250002" xmlns="http://www.w3.org/2000/svg">
 <g transform="translate(0,-201.74998)" fill="none" stroke="#4c4b7f" stroke-width="1.5">
  <path d="m37.38395 213.35539c-5.498018-.00067-10.996821-.001-16.496411-.001-5.499589 0-10.9958901.00066-13.7480667 2.27828-2.7521767 2.27762-2.751294 6.8304-2.7509009 12.41984.000393 5.58943.0002948 12.20528.0004406 18.51954.0001458 6.31425.0005356 12.32071.0001408 17.91296s-.00158 10.76391 1.8300759 13.34629c1.8316513 2.58239 5.4972853 2.58139 10.6188823 2.58093 5.121596-.00047 11.702168-.00039 17.2074-2e-5s9.923903.001 12.131138-1.42769c2.207235-1.42872 2.208002-4.28564 2.208001-7.14175 0-2.85611-.000766-5.71008-1.704022-7.13846-1.703255-1.42839-5.105615-1.42905-7.692216-1.42934-2.5866-.00029-4.354626-.00019-6.122714-6e-5s-3.535922.00031-5.304389.00046-3.536876.00029-5.305468.00042"/>
  <circle cx="43.546227" cy="213.53131" r="6.8035727" stroke-dashoffset="100" stroke-linecap="round" stroke-linejoin="round"/>
  <circle cx="16.227777" cy="263.1333" r="6.8035727" stroke-dashoffset="100" stroke-linecap="round" stroke-linejoin="round"/>
  <path d="m4.3744443 251.42109v39.79334"/>
 </g>
</svg>
