<?xml version="1.0" encoding="utf-8"?>
<!-- Generator: Adobe Illustrator 16.0.4, SVG Export Plug-In . SVG Version: 6.00 Build 0)  -->
<!DOCTYPE svg PUBLIC "-//W3C//DTD SVG 1.1//EN" "http://www.w3.org/Graphics/SVG/1.1/DTD/svg11.dtd">
<svg version="1.1" xmlns="http://www.w3.org/2000/svg" xmlns:xlink="http://www.w3.org/1999/xlink" x="0px" y="0px" width="800px"
	 height="600px" viewBox="0 0 800 600" enable-background="new 0 0 800 600" xml:space="preserve">
<g id="Layer_5">
	<rect fill="#266197" width="800" height="599.604"/>
</g>
<g id="Layer_4">
	<radialGradient id="SVGID_1_" cx="400.291" cy="309.458" r="212.8053" gradientUnits="userSpaceOnUse">
		<stop  offset="4.384566e-04" style="stop-color:#2F7EB3"/>
		<stop  offset="1" style="stop-color:#266197"/>
	</radialGradient>
	<circle fill="url(#SVGID_1_)" cx="400.291" cy="309.457" r="248.988"/>
</g>
<g id="Layer_3">
	<path fill="#255A8C" d="M190.089,201.109c-2.9,0-5.514-1.833-6.504-4.562l-5.132-14.15c-0.63-1.736-0.545-3.615,0.237-5.289
		c0.783-1.674,2.171-2.942,3.907-3.572l14.151-5.132c0.761-0.276,1.554-0.417,2.357-0.417c2.9,0,5.514,1.833,6.504,4.561
		l5.133,14.15c1.299,3.586-0.561,7.562-4.146,8.862l-14.15,5.132C191.684,200.969,190.891,201.109,190.089,201.109z
		 M199.105,169.388c-0.64,0-1.273,0.112-1.881,0.333l-14.15,5.132c-1.385,0.502-2.491,1.514-3.116,2.849
		c-0.625,1.334-0.692,2.833-0.189,4.218l5.132,14.151c0.789,2.176,2.874,3.638,5.188,3.638c0.639,0,1.271-0.111,1.879-0.332
		l14.151-5.132c2.86-1.037,4.343-4.208,3.307-7.068l-5.133-14.15C203.504,170.85,201.419,169.388,199.105,169.388z"/>
	<path fill="#255A8C" d="M176.736,164.272c-2.68,0-5.137-1.582-6.261-4.03l-1.245-3.435c-1.581-5.542-2.199-10.573-1.82-14.901
		c0.117-1.323,0.302-2.68,0.583-4.271c0.486-2.734,1.165-5.227,2.018-7.407c1.344-3.434,2.959-6.603,4.802-9.417
		c1.796-2.747,3.443-5.484,4.895-8.137c1.411-2.588,2.371-5.242,2.853-7.889c0.472-2.591,0.052-5.534-1.246-8.744
		c-2.022-5.575-4.896-9.253-8.531-10.904c-1.762-0.798-3.697-1.204-5.752-1.204c-2.176,0-4.532,0.455-7.003,1.351
		c-3.267,1.185-5.878,2.855-7.763,4.966c-1.889,2.114-3.223,4.532-3.965,7.187c-0.747,2.67-0.969,5.609-0.663,8.736
		c0.135,1.37,0.367,2.791,0.71,4.345c0.063,0.289,0.131,0.579,0.2,0.871l0.021,0.122c0.337,2.782-1.245,5.645-3.944,7.08
		c-0.3,0.16-0.639,0.34-1.015,0.476l-15.289,5.545c-0.365,0.133-0.731,0.21-1.055,0.279c-0.548,0.115-1.105,0.174-1.653,0.174
		c-1.985,0-3.809-0.749-5.136-2.108c-0.53-0.544-1.431-2.929-1.559-3.497c-0.992-4.463-1.444-8.898-1.344-13.181
		c0.063-2.78,0.369-5.551,0.935-8.474c0.681-3.506,1.699-6.818,3.027-9.843c2.484-5.646,6.176-10.738,10.973-15.137
		c4.795-4.396,10.759-7.905,17.725-10.432c8.235-2.987,15.722-4.501,22.251-4.501c0.569,0,1.131,0.012,1.685,0.035
		c6.915,0.289,12.972,1.627,18.001,3.978c5.033,2.356,9.182,5.425,12.332,9.123c3.139,3.692,5.412,7.44,6.754,11.142
		c2.208,6.088,3.246,11.474,3.086,16.008c-0.161,4.525-0.922,8.672-2.263,12.326c-1.34,3.657-3.107,7.034-5.251,10.036
		c-2.125,2.983-4.1,5.916-5.87,8.715c-1.769,2.801-3.179,5.815-4.19,8.959c-0.794,2.472-0.986,5.275-0.569,8.333l0.011,0.084
		l1.177,3.245c0.25,0.688,0.376,1.428,0.388,2.264c0.034,2.387-1.133,4.584-3.121,5.878c-0.481,0.314-0.943,0.549-1.412,0.72
		l-14.151,5.132c-0.463,0.169-0.968,0.284-1.544,0.353C177.275,164.256,177.005,164.272,176.736,164.272L176.736,164.272z
		 M167.036,82.536c2.254,0,4.382,0.446,6.326,1.327c3.991,1.813,7.106,5.742,9.259,11.679c1.397,3.454,1.836,6.639,1.315,9.495
		c-0.508,2.794-1.517,5.59-3,8.31c-1.471,2.688-3.138,5.458-4.953,8.232c-1.79,2.733-3.36,5.815-4.669,9.16
		c-0.82,2.098-1.474,4.5-1.943,7.142c-0.273,1.553-0.454,2.872-0.566,4.149c-0.363,4.145,0.234,8.988,1.774,14.396l1.168,3.225
		c0.937,1.985,2.883,3.222,4.989,3.222c0.215,0,0.429-0.012,0.645-0.038c0.468-0.057,0.871-0.148,1.232-0.279l14.151-5.132
		c0.367-0.133,0.734-0.322,1.124-0.576c1.584-1.031,2.513-2.784,2.485-4.688c-0.008-0.674-0.107-1.264-0.303-1.804l-1.248-3.531
		c-0.461-3.302-0.255-6.342,0.612-9.038c1.048-3.259,2.508-6.38,4.339-9.278c1.787-2.826,3.776-5.78,5.914-8.78
		c2.072-2.9,3.78-6.166,5.077-9.705c1.29-3.516,2.022-7.517,2.178-11.894c0.154-4.354-0.857-9.563-3.003-15.482
		c-1.286-3.544-3.474-7.148-6.504-10.711c-3.018-3.543-7.008-6.492-11.858-8.763c-4.862-2.272-10.739-3.566-17.467-3.848
		c-0.534-0.022-1.075-0.033-1.623-0.033c-6.369,0-13.696,1.486-21.778,4.417c-6.793,2.464-12.598,5.878-17.255,10.147
		c-4.653,4.266-8.231,9.201-10.637,14.668c-1.287,2.931-2.274,6.143-2.935,9.546c-0.551,2.841-0.848,5.536-0.91,8.24
		c-0.097,4.171,0.344,8.492,1.311,12.843c0.115,0.511,0.817,2.239,1.144,2.749l0.047,0.074l0.062,0.062
		c1.038,1.031,2.54,1.622,4.119,1.622c0.434,0,0.869-0.045,1.292-0.134c0.344-0.073,0.642-0.14,0.894-0.23l15.29-5.546
		c0.256-0.092,0.534-0.236,0.827-0.392c2.156-1.146,3.451-3.409,3.222-5.631l-0.005-0.052c0,0-0.138-0.588-0.197-0.856
		c-0.354-1.608-0.595-3.083-0.735-4.51c-0.324-3.3-0.086-6.413,0.708-9.25c0.8-2.863,2.237-5.468,4.269-7.742
		c2.04-2.285,4.842-4.085,8.329-5.35C162.172,83.018,164.691,82.536,167.036,82.536z"/>
	<path fill="#255A8C" d="M532.191,101.784c-2.434,0-4.644-1.239-5.91-3.314l-7.845-12.847c-0.963-1.576-1.253-3.434-0.819-5.23
		c0.435-1.796,1.542-3.315,3.12-4.277l12.845-7.846c1.087-0.663,2.332-1.013,3.599-1.013c2.435,0,4.644,1.238,5.91,3.312
		l7.845,12.847c0.962,1.576,1.254,3.434,0.82,5.231c-0.435,1.795-1.542,3.314-3.119,4.277l-12.846,7.846
		C534.703,101.433,533.458,101.784,532.191,101.784z M537.181,68.658c-1.011,0-2.003,0.279-2.869,0.809l-12.845,7.845
		c-1.259,0.768-2.143,1.979-2.488,3.411c-0.347,1.432-0.114,2.914,0.653,4.171l7.845,12.847c1.011,1.655,2.773,2.643,4.715,2.643
		c1.011,0,2.003-0.28,2.87-0.809l12.846-7.845c1.258-0.767,2.141-1.979,2.486-3.411c0.348-1.432,0.115-2.914-0.653-4.172
		l-7.845-12.847C540.886,69.645,539.123,68.658,537.181,68.658z"/>
	<path fill="#255A8C" d="M616.031,87.316c-1.818,0-3.603-0.132-5.303-0.392c-3.852-0.586-7.512-1.646-10.88-3.149
		c-3.336-1.485-6.603-2.837-9.709-4.018c-3.098-1.177-6.332-1.959-9.613-2.326c-0.562-0.063-1.143-0.095-1.726-0.095
		c-2.076,0-4.281,0.402-6.555,1.194l-0.08,0.028l-2.945,1.799c-0.625,0.382-1.326,0.654-2.143,0.831
		c-0.461,0.101-0.938,0.151-1.42,0.151c-1.876,0-3.685-0.744-4.962-2.042c-0.399-0.404-0.722-0.81-0.985-1.239l-7.844-12.848
		c-0.256-0.417-0.47-0.888-0.654-1.441c-0.938-2.843,0.065-5.948,2.495-7.724l3.119-1.905c5.117-2.651,9.925-4.257,14.24-4.747
		c1.317-0.148,2.685-0.236,4.302-0.279c0.398-0.01,0.794-0.015,1.186-0.015c2.322,0,4.5,0.174,6.475,0.519
		c3.633,0.634,7.06,1.587,10.186,2.833c3.047,1.213,6.057,2.283,8.946,3.179c2.649,0.816,5.276,1.229,7.811,1.229l0.479-0.005
		c2.64-0.052,5.439-1.047,8.331-2.959c5.062-3.092,8.094-6.64,8.988-10.53c0.896-3.896-0.007-8.092-2.681-12.471
		c-1.809-2.964-3.965-5.191-6.41-6.621c-2.446-1.43-5.082-2.256-7.832-2.456c-0.49-0.036-0.985-0.053-1.485-0.053
		c-2.317,0-4.742,0.384-7.209,1.142c-1.317,0.406-2.664,0.916-4.117,1.56c-0.271,0.119-0.541,0.244-0.812,0.369l-0.116,0.045
		c-0.623,0.206-1.321,0.318-2.032,0.318c-2.165,0-4.239-1.011-5.691-2.775c-0.234-0.285-0.462-0.563-0.667-0.896l-8.477-13.883
		c-0.204-0.336-0.354-0.683-0.488-0.989c-0.813-1.891-0.681-4.845,0.075-6.657h1.562c-0.866,1.546-1.112,4.336-0.358,6.085
		c0.139,0.32,0.265,0.601,0.404,0.832l8.476,13.88c0.146,0.238,0.343,0.482,0.554,0.738c1.163,1.413,2.902,2.257,4.652,2.257
		c0.52,0,1.025-0.076,1.503-0.226l0.049-0.015c0,0,0.549-0.252,0.8-0.363c1.507-0.667,2.904-1.196,4.272-1.618
		c2.601-0.799,5.164-1.204,7.618-1.204c0.534,0,1.064,0.019,1.59,0.057c2.963,0.215,5.802,1.104,8.437,2.644
		c2.647,1.547,4.968,3.937,6.898,7.1c2.871,4.702,3.83,9.249,2.851,13.515c-0.983,4.272-4.215,8.107-9.604,11.397
		c-3.108,2.057-6.144,3.121-9.044,3.177c-0.192,0.004-0.381,0.007-0.57,0.007c-2.636,0-5.385-0.435-8.17-1.293
		c-2.928-0.908-5.974-1.991-9.052-3.216c-3.035-1.21-6.369-2.137-9.907-2.755c-1.897-0.331-3.998-0.498-6.244-0.498
		c-0.377,0-0.757,0.005-1.141,0.014c-1.572,0.041-2.9,0.127-4.18,0.271c-4.133,0.469-8.76,2.018-13.754,4.602l-2.928,1.787
		c-1.96,1.463-2.738,3.92-2,6.156c0.151,0.456,0.316,0.821,0.518,1.149l7.846,12.85c0.204,0.335,0.462,0.658,0.788,0.986
		c1.017,1.034,2.453,1.628,3.938,1.628c0.39,0,0.776-0.042,1.15-0.124c0.658-0.142,1.218-0.357,1.708-0.656l3.212-1.926
		c2.451-0.864,4.835-1.303,7.087-1.303c0.636,0,1.272,0.035,1.892,0.104c3.397,0.379,6.747,1.189,9.957,2.409
		c3.128,1.19,6.419,2.552,9.781,4.048c3.256,1.453,6.796,2.478,10.521,3.044c1.63,0.249,3.344,0.375,5.092,0.375
		c2.222,0,4.576-0.204,6.996-0.606c4.297-0.714,9.201-2.741,14.576-6.022c3.218-1.964,6.314-4.826,9.203-8.505
		c2.873-3.661,4.968-8.157,6.229-13.362c1.26-5.219,1.359-11.235,0.297-17.883c-1.066-6.657-4.078-14.08-8.952-22.063
		c-3.763-6.162-8.263-11.172-13.376-14.893C630.155,1.964,627.72,0.569,626.81,0h2.468h0.247c0.271,0.185,2.034,1.253,2.302,1.448
		c5.264,3.828,9.889,8.974,13.749,15.295c4.969,8.14,8.044,15.734,9.14,22.571c1.091,6.834,0.983,13.037-0.318,18.433
		c-1.308,5.401-3.491,10.077-6.488,13.898c-2.993,3.812-6.215,6.785-9.576,8.836c-5.529,3.376-10.601,5.465-15.074,6.208
		C620.762,87.105,618.331,87.316,616.031,87.316z"/>
	<path fill="#255A8C" d="M0,231.156c1.457-0.113,3.585-0.839,4.543-1.946c0.964-1.115,1.438-2.538,1.331-4.008L4.79,210.188
		c-0.166-2.301-2.601-4.26-4.79-4.892v-1.641c2.955,0.653,5.964,3.343,6.187,6.432l1.084,15.014
		c0.133,1.843-0.459,3.627-1.669,5.024c-1.209,1.397-2.89,2.24-4.732,2.373L0,232.547V231.156z"/>
	<path fill="#255A8C" d="M81.601,262.729c-4.433,0-8.32-0.528-11.554-1.569c-4.313-1.387-8.096-3.249-11.242-5.534
		c-3.15-2.283-5.918-4.902-8.226-7.786c-2.286-2.851-4.57-5.549-6.787-8.021c-2.213-2.466-4.729-4.645-7.478-6.473
		c-2.163-1.438-4.808-2.386-7.863-2.818l-0.084-0.012l-3.442,0.249c-0.153,0.011-0.304,0.017-0.455,0.017
		c-0.583,0-1.182-0.085-1.829-0.261c-2.305-0.616-4.101-2.337-4.806-4.604c-0.17-0.544-0.271-1.052-0.308-1.552l-1.082-15.015
		c-0.037-0.49-0.011-1.006,0.079-1.581c0.47-2.958,2.783-5.257,5.757-5.722l0.091-0.01l3.71-0.252
		c5.695,0.001,10.652,0.777,14.677,2.307c1.252,0.479,2.508,1.026,3.952,1.724c2.494,1.21,4.707,2.542,6.576,3.959
		c2.938,2.228,5.546,4.646,7.753,7.186c2.147,2.47,4.333,4.8,6.495,6.926c2.108,2.064,4.4,3.71,6.814,4.892
		c1.784,0.877,3.915,1.322,6.333,1.322c0.774,0,1.588-0.046,2.42-0.137c5.915-0.427,10.236-2.19,12.815-5.238
		c2.582-3.053,3.703-7.195,3.333-12.312c-0.25-3.464-1.146-6.433-2.663-8.823c-1.519-2.393-3.481-4.334-5.834-5.773
		c-2.362-1.445-5.13-2.46-8.228-3.018c-1.35-0.242-2.78-0.406-4.374-0.501c-0.295-0.019-0.593-0.032-0.891-0.044l-0.123-0.013
		c-2.769-0.434-5.093-2.736-5.739-5.723c-0.071-0.332-0.152-0.705-0.181-1.103l-1.171-16.224c-0.027-0.393-0.002-0.77,0.02-1.102
		c0.178-2.55,1.599-4.849,3.709-5.995c0.622-0.334,2.947-0.552,3.612-0.552l0.177,0.004c4.564,0.264,8.956,1.037,13.049,2.298
		c2.656,0.818,5.239,1.867,7.897,3.208c3.187,1.608,6.096,3.491,8.648,5.594c4.755,3.929,8.649,8.869,11.576,14.682
		c2.922,5.815,4.675,12.509,5.208,19.895c0.686,9.512-0.062,17.67-2.222,24.25c-2.162,6.573-5.1,12.036-8.732,16.236
		c-3.636,4.2-7.72,7.356-12.137,9.379c-4.407,2.016-8.634,3.182-12.561,3.464C84.668,262.669,83.09,262.729,81.601,262.729z
		 M28.479,229.118c3.334,0.45,6.23,1.479,8.609,3.061c2.846,1.894,5.452,4.149,7.745,6.704c2.235,2.491,4.535,5.209,6.838,8.081
		c2.228,2.784,4.905,5.317,7.955,7.529c3.026,2.198,6.677,3.993,10.85,5.335c3.091,0.995,6.845,1.499,11.158,1.499
		c1.449,0,2.982-0.058,4.557-0.171c3.762-0.271,7.826-1.395,12.079-3.341c4.233-1.938,8.156-4.974,11.66-9.022
		c3.511-4.06,6.357-9.362,8.461-15.757c2.103-6.406,2.828-14.383,2.156-23.712c-0.52-7.201-2.224-13.717-5.062-19.367
		c-2.838-5.638-6.611-10.425-11.216-14.23c-2.47-2.036-5.292-3.861-8.387-5.424c-2.589-1.305-5.102-2.326-7.68-3.12
		c-3.986-1.228-8.263-1.981-12.714-2.238c-0.002,0-0.005,0-0.008,0c-0.88,0-2.457,0.207-2.946,0.353l-0.086,0.025l-0.078,0.044
		c-1.65,0.93-2.763,2.769-2.904,4.8c-0.023,0.343-0.04,0.653-0.021,0.926l1.17,16.22c0.021,0.281,0.087,0.601,0.154,0.911
		c0.515,2.381,2.338,4.24,4.539,4.625l0.052,0.009l0.053,0.002c0.275,0.012,0.551,0.024,0.824,0.042
		c1.646,0.098,3.129,0.268,4.538,0.521c3.268,0.588,6.198,1.666,8.709,3.201c2.536,1.551,4.651,3.643,6.286,6.217
		c1.643,2.589,2.611,5.776,2.877,9.473c0.396,5.495-0.835,9.976-3.661,13.317c-2.832,3.346-7.461,5.273-13.759,5.728
		c-0.871,0.095-1.747,0.144-2.563,0.144c-2.62,0-4.953-0.493-6.932-1.466c-2.546-1.247-4.961-2.979-7.178-5.149
		c-2.188-2.15-4.398-4.508-6.571-7.008c-2.144-2.466-4.681-4.817-7.543-6.988c-1.796-1.361-3.929-2.645-6.34-3.814
		c-1.408-0.681-2.627-1.213-3.84-1.676c-3.864-1.469-8.652-2.213-14.232-2.213l-0.156,0.002l-3.365,0.243
		c-2.412,0.403-4.23,2.229-4.599,4.555c-0.074,0.473-0.095,0.873-0.066,1.258l1.083,15.017c0.029,0.394,0.11,0.798,0.249,1.238
		c0.561,1.805,1.994,3.177,3.832,3.668c0.533,0.145,1.001,0.212,1.471,0.212c0.116,0,0.233-0.004,0.35-0.013l3.586-0.259
		L28.479,229.118z"/>
	<path fill="#255A8C" d="M511.531,600c2.004-2.167,4.496-5.591,6.142-8.624c2.218-4.095,3.527-8.879,3.894-14.22
		c0.365-5.354-0.547-11.303-2.711-17.679c-2.172-6.386-6.389-13.196-12.534-20.244c-4.744-5.442-10.022-9.625-15.688-12.435
		c-5.654-2.798-11.548-4.355-17.518-4.629c-0.606-0.027-1.215-0.041-1.828-0.041c-2.624,0-5.36,0.252-8.136,0.75
		c-2.857,0.515-5.478,1.209-8.012,2.123c-3.927,1.417-7.798,3.387-11.506,5.856c-0.436,0.291-1.794,1.571-2.152,2.061l-0.052,0.071
		l-0.035,0.08c-0.76,1.733-0.542,3.872,0.566,5.582c0.219,0.335,0.364,0.551,0.54,0.753l10.686,12.257
		c0.178,0.202,0.397,0.4,0.669,0.635c1.117,0.965,2.587,1.52,4.033,1.52c0.847,0,1.669-0.191,2.377-0.553l0.046-0.023
		c0,0,0.498-0.34,0.729-0.492c1.372-0.91,2.659-1.666,3.938-2.312c2.967-1.495,5.956-2.396,8.886-2.679
		c0.614-0.06,1.237-0.09,1.852-0.09c2.331,0,4.655,0.431,6.908,1.28c2.869,1.081,5.559,3.046,7.993,5.84
		c3.621,4.15,5.331,8.472,5.082,12.842c-0.252,4.377-2.793,8.7-7.552,12.849c-2.718,2.551-5.531,4.109-8.383,4.652
		c-1.58,0.304-3.24,0.458-4.936,0.458c-1.271,0-2.582-0.087-3.896-0.258c-3.05-0.405-6.235-0.96-9.465-1.649
		c-3.191-0.682-6.633-1.035-10.229-1.05h-0.107c-2.223,0-4.662,0.257-7.252,0.763c-1.53,0.302-2.825,0.61-4.077,0.97
		c-3.997,1.157-8.297,3.461-12.784,6.848l-2.586,2.254c-1.509,1.584-1.914,4.595-1.199,6.534h-1.438
		c-0.692-2.376-0.128-5.702,1.624-7.506l0.068-0.065l2.688-2.336c4.596-3.474,9.064-5.865,13.239-7.073
		c1.295-0.372,2.628-0.689,4.194-0.998c2.677-0.524,5.208-0.79,7.522-0.79h0.116c3.684,0.015,7.222,0.378,10.512,1.081
		c3.206,0.684,6.354,1.232,9.355,1.63c1.251,0.164,2.497,0.246,3.707,0.246c1.606,0,3.181-0.146,4.678-0.432
		c2.587-0.494,5.18-1.946,7.707-4.315c4.471-3.898,6.864-7.905,7.094-11.891c0.228-3.993-1.367-7.978-4.74-11.843
		c-2.279-2.617-4.779-4.451-7.431-5.451c-2.094-0.788-4.254-1.188-6.42-1.188c-0.567,0-1.145,0.027-1.714,0.083
		c-2.756,0.265-5.578,1.118-8.389,2.534c-1.222,0.616-2.463,1.346-3.795,2.229c-0.248,0.164-0.493,0.332-0.739,0.5l-0.106,0.064
		c-0.911,0.483-1.998,0.752-3.104,0.752c-1.774,0-3.522-0.666-4.921-1.876c-0.247-0.213-0.541-0.467-0.809-0.771l-10.69-12.262
		c-0.244-0.282-0.44-0.581-0.614-0.845c-1.41-2.175-1.669-4.885-0.672-7.069c0.304-0.658,2.146-2.344,2.7-2.715
		c3.804-2.532,7.777-4.555,11.809-6.009c2.608-0.941,5.304-1.656,8.239-2.186c2.857-0.512,5.67-0.771,8.358-0.771
		c0.641,0,1.279,0.015,1.914,0.043c6.166,0.282,12.248,1.888,18.077,4.772c5.831,2.892,11.256,7.188,16.123,12.77
		c6.267,7.188,10.573,14.157,12.802,20.714c2.226,6.554,3.161,12.686,2.783,18.224c-0.38,5.542-1.745,10.52-4.059,14.792
		c-1.457,2.686-3.687,5.892-5.451,7.957H511.531z"/>
	<path fill="#255A8C" d="M252.924,585.213c-0.875,0-1.745-0.223-2.518-0.643l-9.723-5.297c-2.553-1.392-3.499-4.601-2.108-7.153
		l5.297-9.723c0.924-1.697,2.7-2.751,4.635-2.751c0.875,0,1.745,0.223,2.517,0.643l9.722,5.296c1.237,0.674,2.138,1.789,2.536,3.141
		c0.399,1.351,0.247,2.775-0.427,4.013l-5.296,9.724C256.635,584.158,254.858,585.213,252.924,585.213z M248.507,561.047
		c-1.422,0-2.727,0.774-3.405,2.021l-5.297,9.723c-0.494,0.907-0.605,1.953-0.312,2.946c0.293,0.993,0.954,1.812,1.861,2.307
		l9.723,5.297c0.575,0.313,1.196,0.473,1.848,0.473c1.421,0,2.727-0.773,3.407-2.02l5.296-9.724
		c1.021-1.876,0.327-4.232-1.549-5.254l-9.723-5.296C249.779,561.206,249.158,561.047,248.507,561.047z"/>
	<path fill="#255A8C" d="M266.7,559.901c-0.467,0-0.935-0.063-1.388-0.188c-0.424-0.117-0.792-0.263-1.126-0.444l-9.72-5.296
		c-0.329-0.178-0.649-0.406-0.981-0.7c-1.705-1.521-2.227-3.953-1.299-6.051l0.042-0.085l1.265-2.315
		c2.288-3.576,4.774-6.384,7.362-8.298c0.771-0.57,1.613-1.133,2.649-1.77c1.784-1.087,3.452-1.909,5.098-2.513
		c2.561-0.938,5.106-1.595,7.566-1.952c2.384-0.348,4.689-0.773,6.854-1.265c2.096-0.479,4.007-1.236,5.681-2.25
		c1.626-0.983,3.021-2.623,4.143-4.872c2.062-3.787,2.686-7.118,1.84-9.877c-0.862-2.802-2.893-5.042-6.208-6.848
		c-2.217-1.208-4.381-1.826-6.431-1.835c-2.079,0-4.033,0.437-5.811,1.298c-1.816,0.881-3.526,2.176-5.083,3.851
		c-0.682,0.734-1.347,1.549-2.034,2.491l-0.476,0.652c-0.906,1.017-2.411,1.658-3.979,1.658c-0.698,0-1.377-0.123-2.021-0.364
		c-0.256-0.096-0.517-0.192-0.782-0.338l-10.504-5.722c-0.236-0.127-0.451-0.283-0.663-0.44c-1.604-1.193-2.48-3.013-2.343-4.865
		c0.045-0.62,0.975-2.342,1.202-2.657c1.985-2.732,4.219-5.155,6.639-7.197c1.569-1.325,3.253-2.513,5.149-3.63
		c2.271-1.339,4.605-2.397,6.937-3.146c3.188-1.019,6.556-1.535,10.009-1.535c1.234,0,2.498,0.066,3.754,0.198
		c4.782,0.502,9.645,2.085,14.453,4.704c6.181,3.368,10.952,7.088,14.18,11.059c3.225,3.969,5.45,7.979,6.613,11.922
		c1.161,3.945,1.494,7.753,0.987,11.318c-0.508,3.551-1.473,6.65-2.869,9.214c-2.291,4.203-4.768,7.418-7.362,9.556
		c-2.591,2.131-5.264,3.741-7.944,4.787c-2.68,1.049-5.418,1.725-8.137,2.008c-2.688,0.285-5.262,0.625-7.651,1.011
		c-2.393,0.389-4.725,1.076-6.934,2.045c-1.713,0.75-3.319,1.982-4.774,3.664l-0.056,0.065l-1.205,2.212
		c-0.267,0.49-0.626,0.938-1.098,1.366C269.271,559.413,268.012,559.901,266.7,559.901z M281.968,501.942
		c2.339,0.011,4.755,0.686,7.18,2.005c3.601,1.962,5.915,4.542,6.876,7.667c0.96,3.132,0.309,6.812-1.937,10.936
		c-1.239,2.483-2.801,4.299-4.659,5.422c-1.801,1.091-3.851,1.904-6.095,2.417c-2.189,0.499-4.532,0.931-6.963,1.285
		c-2.367,0.346-4.818,0.979-7.286,1.882c-1.541,0.565-3.172,1.37-4.849,2.393c-1.004,0.617-1.812,1.157-2.548,1.7
		c-2.439,1.805-4.799,4.473-7.014,7.93l-1.199,2.201c-0.677,1.594-0.285,3.353,0.941,4.446c0.252,0.224,0.486,0.392,0.719,0.517
		l9.724,5.297c0.24,0.132,0.503,0.234,0.826,0.324c0.327,0.089,0.663,0.134,1.001,0.134c0.976,0,1.905-0.357,2.618-1.007
		c0.353-0.32,0.617-0.646,0.809-0.997l1.372-2.455c1.608-1.876,3.401-3.256,5.332-4.102c2.319-1.016,4.766-1.736,7.271-2.143
		c2.422-0.392,5.023-0.735,7.728-1.021c2.593-0.271,5.209-0.917,7.774-1.92c2.541-0.992,5.086-2.528,7.564-4.564
		c2.457-2.022,4.819-5.1,7.022-9.145c1.316-2.416,2.229-5.357,2.713-8.742c0.478-3.364,0.16-6.972-0.944-10.724
		c-1.11-3.763-3.249-7.61-6.357-11.436c-3.112-3.827-7.743-7.432-13.764-10.711c-4.646-2.531-9.333-4.059-13.93-4.542
		c-1.21-0.127-2.427-0.192-3.616-0.192c-3.301,0-6.521,0.495-9.573,1.471c-2.228,0.714-4.466,1.729-6.652,3.017
		c-1.83,1.08-3.452,2.223-4.958,3.495c-2.334,1.97-4.49,4.309-6.408,6.949c-0.226,0.32-0.764,1.414-0.906,1.838l-0.036,0.108
		l-0.004,0.113c-0.054,1.328,0.598,2.631,1.744,3.485c0.242,0.18,0.383,0.281,0.538,0.364l10.509,5.724
		c0.17,0.095,0.348,0.163,0.526,0.229c0.574,0.215,1.102,0.312,1.639,0.312c1.128,0,2.179-0.433,2.884-1.188l0.036-0.038
		l0.372-0.521c0.713-0.979,1.414-1.836,2.138-2.616c1.676-1.802,3.525-3.201,5.498-4.157
		C277.595,502.427,279.729,501.942,281.968,501.942z"/>
	<path fill="#255A8C" d="M190.119,367.559c-0.702,0-1.399-0.179-2.019-0.516l-7.5-4.086c-2.046-1.115-2.804-3.688-1.69-5.734
		l4.086-7.5c0.741-1.36,2.165-2.205,3.715-2.205c0.701,0,1.399,0.179,2.018,0.516l7.5,4.085c0.992,0.54,1.714,1.434,2.033,2.518
		c0.32,1.083,0.198,2.226-0.342,3.217l-4.085,7.5C193.093,366.713,191.669,367.559,190.119,367.559z M186.711,348.918
		c-1.038,0-1.991,0.565-2.486,1.475l-4.086,7.499c-0.36,0.663-0.441,1.427-0.228,2.151c0.214,0.726,0.696,1.323,1.359,1.685
		l7.499,4.085c0.401,0.218,0.858,0.333,1.322,0.333c1.042,0,2.029-0.574,2.514-1.463l4.085-7.5c0.361-0.662,0.443-1.426,0.229-2.151
		c-0.213-0.724-0.696-1.322-1.359-1.684l-7.5-4.085C187.641,349.034,187.187,348.918,186.711,348.918z"/>
	<path fill="#255A8C" d="M200.743,348.034c-0.377,0-0.751-0.051-1.112-0.15c-0.34-0.095-0.635-0.211-0.901-0.356l-7.499-4.085
		c-0.264-0.144-0.521-0.327-0.786-0.562c-1.367-1.22-1.786-3.171-1.042-4.852l0.041-0.081l0.985-1.801
		c1.769-2.764,3.7-4.944,5.711-6.434c0.599-0.443,1.233-0.866,2.055-1.371c1.388-0.847,2.685-1.485,3.961-1.953
		c1.982-0.727,3.957-1.236,5.869-1.514c1.85-0.271,3.624-0.599,5.274-0.974c1.599-0.365,3.057-0.942,4.334-1.717
		c1.229-0.742,2.283-1.984,3.135-3.691c1.57-2.884,2.049-5.415,1.409-7.5c-0.652-2.12-2.193-3.817-4.711-5.188
		c-1.685-0.918-3.329-1.388-4.885-1.396c-1.581,0-3.063,0.332-4.411,0.986c-1.381,0.668-2.685,1.656-3.874,2.935
		c-0.521,0.562-1.03,1.185-1.556,1.907l-0.387,0.528c-0.718,0.803-1.925,1.317-3.182,1.317l0,0c-0.557,0-1.1-0.098-1.613-0.29
		c-0.21-0.077-0.42-0.159-0.623-0.27l-8.102-4.413c-0.195-0.105-0.372-0.234-0.548-0.364c-1.27-0.946-1.963-2.397-1.854-3.881
		c0.035-0.5,0.741-1.823,0.958-2.133c1.542-2.12,3.274-3.998,5.146-5.578c1.221-1.03,2.527-1.951,3.995-2.816
		c1.763-1.039,3.574-1.86,5.381-2.439c2.474-0.791,5.087-1.192,7.767-1.192c0.958,0,1.939,0.052,2.915,0.153
		c3.708,0.391,7.479,1.617,11.208,3.648c4.785,2.605,8.48,5.489,10.985,8.568c2.501,3.077,4.227,6.19,5.131,9.252
		c0.902,3.066,1.16,6.026,0.766,8.798c-0.395,2.758-1.145,5.167-2.231,7.16c-1.775,3.261-3.699,5.756-5.718,7.418
		c-2.009,1.653-4.085,2.904-6.171,3.718c-2.078,0.813-4.203,1.339-6.317,1.56c-2.071,0.22-4.053,0.481-5.893,0.778
		c-1.83,0.297-3.617,0.823-5.31,1.565c-1.29,0.564-2.501,1.492-3.6,2.755l-0.058,0.066l-0.921,1.691
		c-0.215,0.394-0.502,0.751-0.878,1.095C202.807,347.643,201.796,348.034,200.743,348.034z M212.527,303.008
		c1.829,0.01,3.716,0.537,5.608,1.566c2.815,1.534,4.625,3.555,5.379,6.007c0.754,2.459,0.248,5.34-1.506,8.56
		c-0.968,1.942-2.192,3.36-3.651,4.242c-1.405,0.851-3.003,1.484-4.749,1.883c-1.688,0.384-3.499,0.719-5.383,0.994
		c-1.813,0.264-3.694,0.749-5.588,1.443c-1.174,0.43-2.422,1.046-3.711,1.831c-0.787,0.485-1.388,0.887-1.954,1.303
		c-1.864,1.381-3.668,3.421-5.364,6.065l-0.917,1.683c-0.493,1.182-0.203,2.457,0.684,3.249c0.182,0.161,0.352,0.284,0.522,0.377
		l7.502,4.087c0.175,0.096,0.368,0.171,0.606,0.236c0.233,0.065,0.478,0.099,0.726,0.099c0.703,0,1.4-0.269,1.914-0.737
		c0.26-0.236,0.454-0.476,0.592-0.729l1.085-1.931c1.252-1.458,2.651-2.532,4.16-3.194c1.803-0.789,3.704-1.349,5.648-1.663
		c1.852-0.301,3.86-0.566,5.969-0.789c1.987-0.208,3.991-0.703,5.955-1.472c1.947-0.759,3.896-1.936,5.792-3.495
		c1.879-1.547,3.688-3.904,5.378-7.007c1.005-1.846,1.704-4.096,2.075-6.688c0.365-2.57,0.122-5.33-0.723-8.203
		c-0.851-2.882-2.491-5.831-4.874-8.766c-2.389-2.937-5.945-5.703-10.569-8.223c-3.564-1.941-7.159-3.114-10.685-3.484
		c-0.928-0.098-1.86-0.146-2.771-0.146c-2.532,0-5.001,0.379-7.338,1.125c-1.707,0.548-3.422,1.326-5.098,2.314
		c-1.4,0.824-2.644,1.701-3.802,2.68c-1.788,1.51-3.442,3.303-4.916,5.33c-0.18,0.266-0.534,0.993-0.65,1.303l-0.049,0.131
		l-0.001,0.141c-0.012,0.946,0.467,1.875,1.283,2.481c0.171,0.129,0.278,0.205,0.396,0.27l8.105,4.414
		c0.123,0.068,0.252,0.118,0.381,0.166c0.43,0.16,0.819,0.231,1.214,0.231c0.812,0,1.571-0.307,2.083-0.842l0.04-0.042l0.284-0.397
		c0.556-0.763,1.101-1.431,1.662-2.034c1.307-1.405,2.749-2.495,4.288-3.24C209.098,303.388,210.77,303.008,212.527,303.008z"/>
	<path fill="#255A8C" d="M33.626,62.689c-1.272,0-2.464-0.563-3.27-1.545l-5.418-6.603c-1.477-1.802-1.214-4.471,0.586-5.95
		l6.604-5.417c0.754-0.619,1.706-0.959,2.679-0.959c1.271,0,2.463,0.563,3.271,1.546l5.416,6.603c1.479,1.8,1.216,4.468-0.585,5.948
		l-6.604,5.417C35.551,62.348,34.6,62.689,33.626,62.689z M34.808,43.615c-0.66,0-1.279,0.222-1.791,0.641l-6.604,5.417
		c-1.205,0.99-1.38,2.775-0.392,3.98l5.417,6.602c0.529,0.646,1.332,1.017,2.2,1.017c0.658,0,1.29-0.222,1.779-0.626l6.603-5.416
		c1.205-0.99,1.379-2.774,0.391-3.978l-5.416-6.603C36.456,43.992,35.659,43.615,34.808,43.615z"/>
	<path fill="#255A8C" d="M60.702,118.011c-0.699,0-1.394-0.034-2.064-0.1c-3.181-0.315-6.022-1.188-8.441-2.592
		c-2.407-1.4-4.358-3-5.8-4.756c-2.356-2.873-3.947-5.592-4.728-8.084c-0.778-2.484-1.158-4.878-1.129-7.116
		c0.025-2.23,0.337-4.397,0.926-6.441c0.581-2.026,1.083-3.962,1.491-5.753c0.413-1.807,0.596-3.661,0.544-5.509
		c-0.04-1.407-0.444-2.878-1.203-4.372l-0.04-0.078l-1.223-1.49c-0.281-0.343-0.505-0.743-0.683-1.223
		c-0.505-1.369-0.28-2.875,0.602-4.026c0.213-0.277,0.432-0.507,0.669-0.702l6.601-5.416c0.231-0.19,0.498-0.359,0.815-0.518
		c0.545-0.268,1.173-0.41,1.812-0.41c1.177,0,2.298,0.461,3.077,1.266l0.059,0.067l1.301,1.59c1.896,2.676,3.192,5.285,3.818,7.708
		c0.186,0.725,0.34,1.471,0.499,2.42c0.259,1.574,0.368,3.057,0.323,4.404c-0.071,2.112-0.34,4.134-0.799,6.008
		c-0.442,1.805-0.805,3.572-1.078,5.253c-0.262,1.62-0.274,3.188-0.036,4.662c0.226,1.417,0.981,2.861,2.244,4.291
		c2.084,2.539,4.251,3.933,6.422,4.123c0.207,0.019,0.415,0.027,0.623,0.027c1.975,0,3.979-0.823,5.956-2.446
		c1.483-1.218,2.536-2.565,3.127-4.003c0.594-1.447,0.844-2.947,0.742-4.458c-0.103-1.535-0.528-3.113-1.266-4.691
		c-0.325-0.696-0.712-1.402-1.183-2.158l-0.342-0.556c-0.738-1.496-0.413-3.462,0.845-4.831c0.15-0.164,0.305-0.329,0.483-0.476
		l7.134-5.852c0.17-0.142,0.357-0.259,0.544-0.373c0.734-0.445,1.574-0.681,2.428-0.681c0.661,0,1.305,0.146,1.863,0.422
		c0.486,0.237,1.442,1.415,1.616,1.686c1.388,2.227,2.479,4.539,3.239,6.866c0.496,1.514,0.859,3.07,1.11,4.758
		c0.302,2.026,0.383,4.013,0.241,5.905c-0.267,3.532-1.292,6.995-3.048,10.29c-1.754,3.292-4.308,6.327-7.589,9.018
		c-4.213,3.457-8.272,5.8-12.065,6.965C66.148,117.546,63.309,118.011,60.702,118.011z M41.5,72.564
		c0.882,1.709,1.354,3.41,1.399,5.056c0.055,1.968-0.14,3.939-0.579,5.86c-0.415,1.82-0.922,3.781-1.51,5.829
		c-0.555,1.923-0.848,3.966-0.871,6.071c-0.027,2.089,0.331,4.337,1.065,6.681c0.726,2.318,2.231,4.88,4.474,7.615
		c1.335,1.626,3.159,3.118,5.42,4.434c2.246,1.304,4.895,2.115,7.875,2.41c0.618,0.061,1.259,0.091,1.908,0.091
		c2.484,0,5.191-0.443,8.046-1.318c3.617-1.11,7.516-3.368,11.588-6.708c3.138-2.575,5.574-5.466,7.241-8.595
		c1.664-3.123,2.635-6.398,2.888-9.736c0.134-1.79,0.057-3.671-0.229-5.594c-0.24-1.608-0.586-3.089-1.057-4.53
		c-0.726-2.222-1.768-4.429-3.095-6.559c-0.167-0.25-0.698-0.848-0.962-1.091l-0.103-0.094l-0.129-0.054
		c-0.346-0.146-0.72-0.22-1.11-0.22c-0.583,0-1.161,0.165-1.673,0.476c-0.18,0.108-0.291,0.178-0.393,0.263l-7.14,5.857
		c-0.112,0.092-0.208,0.194-0.301,0.298c-0.888,0.966-1.135,2.239-0.666,3.281l0.023,0.051l0.261,0.414
		c0.498,0.801,0.911,1.555,1.26,2.302c0.812,1.736,1.281,3.483,1.394,5.191c0.116,1.726-0.167,3.436-0.844,5.083
		c-0.68,1.655-1.869,3.188-3.534,4.554c-2.234,1.833-4.539,2.762-6.853,2.762c-0.245,0-0.491-0.01-0.736-0.031
		c-2.56-0.223-5.039-1.774-7.366-4.609c-1.436-1.627-2.292-3.294-2.56-4.977c-0.262-1.622-0.25-3.34,0.036-5.108
		c0.28-1.718,0.65-3.522,1.101-5.362c0.437-1.78,0.693-3.705,0.76-5.721c0.042-1.255-0.061-2.644-0.304-4.127
		c-0.154-0.913-0.3-1.621-0.475-2.301c-0.58-2.246-1.793-4.684-3.606-7.248l-1.216-1.482c-0.589-0.585-1.291-0.872-2.035-0.872
		c-0.432,0-0.847,0.096-1.234,0.287c-0.226,0.112-0.398,0.222-0.548,0.345l-6.602,5.416c-0.154,0.127-0.3,0.281-0.446,0.472
		c-0.588,0.767-0.738,1.771-0.401,2.687c0.125,0.333,0.272,0.601,0.454,0.822L41.5,72.564z"/>
	<path fill="#255A8C" d="M580.553,542.201c-0.488,0-0.981-0.053-1.465-0.156l-14.714-3.171c-3.727-0.805-6.106-4.493-5.305-8.221
		l3.172-14.715c0.682-3.164,3.523-5.46,6.756-5.46c0.488,0,0.981,0.053,1.465,0.156l14.713,3.172
		c1.806,0.389,3.353,1.458,4.354,3.01c1.001,1.553,1.339,3.402,0.95,5.208l-3.171,14.715
		C586.627,539.904,583.785,542.201,580.553,542.201z M568.997,511.879c-2.579,0-4.844,1.831-5.387,4.354l-3.172,14.715
		c-0.641,2.974,1.257,5.915,4.23,6.558l14.715,3.17c0.386,0.083,0.778,0.125,1.169,0.125c2.579,0,4.844-1.832,5.387-4.356
		l3.171-14.715c0.311-1.44,0.041-2.915-0.759-4.153c-0.798-1.238-2.031-2.091-3.472-2.4l-14.714-3.172
		C569.78,511.921,569.388,511.879,568.997,511.879z"/>
	<path fill="#255A8C" d="M659.377,595.529c-2.369,0-4.632-0.229-6.725-0.679c-6.33-1.365-11.444-3.348-15.202-5.892
		c-3.746-2.541-6.854-5.39-9.237-8.466c-2.39-3.084-4.312-6.375-5.712-9.782c-1.398-3.386-2.833-6.617-4.265-9.604
		c-1.433-2.987-3.236-5.783-5.362-8.309c-1.674-1.988-3.947-3.641-6.759-4.911l-0.077-0.034l-3.373-0.728
		c-0.714-0.153-1.408-0.439-2.123-0.875c-2.041-1.238-3.283-3.395-3.323-5.768c-0.01-0.579,0.037-1.097,0.143-1.581l3.169-14.711
		c0.104-0.48,0.274-0.971,0.521-1.496c1.13-2.388,3.582-3.933,6.245-3.933c0.294,0,0.591,0.019,0.888,0.057l3.571,0.771
		c5.537,1.606,10.127,3.756,13.59,6.375c1.057,0.802,2.108,1.68,3.309,2.763c2.054,1.861,3.804,3.761,5.202,5.645
		c2.197,2.967,4.023,6.019,5.428,9.071c1.373,2.986,2.816,5.837,4.291,8.472c1.442,2.57,3.181,4.793,5.168,6.607
		c1.944,1.776,4.659,2.985,8.069,3.593c2.104,0.452,4.088,0.685,5.87,0.685c3.117,0,5.775-0.713,7.901-2.118
		c3.332-2.208,5.57-5.871,6.653-10.886c0.731-3.397,0.703-6.497-0.083-9.214c-0.787-2.723-2.127-5.138-3.982-7.178
		c-1.865-2.052-4.236-3.802-7.048-5.203c-1.226-0.612-2.554-1.171-4.06-1.708c-0.278-0.101-0.56-0.197-0.845-0.294l-0.11-0.046
		c-2.538-1.192-4.123-4.054-3.904-7.104c0.028-0.38,0.055-0.739,0.138-1.116l3.424-15.894c0.082-0.379,0.205-0.719,0.325-1.046
		c0.888-2.407,2.896-4.212,5.245-4.721c0.105-0.023,0.227-0.034,0.378-0.034c0.831,0,2.772,0.346,3.412,0.571
		c4.304,1.53,8.303,3.505,11.882,5.866c2.321,1.53,4.507,3.262,6.682,5.293c2.61,2.442,4.875,5.065,6.729,7.795
		c3.463,5.104,5.816,10.938,6.993,17.339c1.177,6.402,0.98,13.319-0.582,20.558c-2.007,9.321-5.013,16.942-8.934,22.651
		c-3.916,5.702-8.268,10.122-12.935,13.138c-4.672,3.012-9.478,4.896-14.28,5.599C663.492,595.367,661.37,595.529,659.377,595.529z
		 M606.612,546.575c3.041,1.363,5.507,3.153,7.332,5.321c2.205,2.62,4.073,5.516,5.554,8.605c1.438,2.998,2.884,6.254,4.298,9.677
		c1.353,3.29,3.211,6.473,5.522,9.457c2.291,2.957,5.291,5.704,8.918,8.164c3.61,2.445,8.56,4.356,14.713,5.682
		c1.994,0.43,4.156,0.647,6.427,0.647c1.928,0,3.981-0.156,6.104-0.465c4.604-0.675,9.221-2.487,13.724-5.39
		c4.511-2.915,8.729-7.206,12.539-12.754c3.818-5.56,6.752-13.014,8.72-22.154c1.523-7.059,1.716-13.791,0.573-20.009
		c-1.142-6.208-3.421-11.862-6.774-16.807c-1.797-2.645-3.993-5.187-6.526-7.558c-2.115-1.976-4.24-3.659-6.497-5.148
		c-3.482-2.298-7.378-4.221-11.577-5.715c-0.45-0.158-2.221-0.484-2.927-0.49l-0.096-0.001l-0.094,0.021
		c-1.844,0.433-3.427,1.886-4.131,3.793c-0.119,0.327-0.223,0.619-0.278,0.884l-3.425,15.896c-0.056,0.254-0.081,0.536-0.105,0.862
		c-0.179,2.506,1.021,4.769,3.057,5.769l0.092,0.039c0.298,0.102,0.541,0.186,0.783,0.273c1.56,0.557,2.937,1.136,4.212,1.771
		c2.969,1.481,5.479,3.337,7.459,5.516c1.999,2.197,3.442,4.799,4.291,7.73c0.852,2.94,0.888,6.271,0.106,9.897
		c-1.162,5.386-3.602,9.342-7.249,11.758c-2.352,1.556-5.282,2.345-8.709,2.345c-1.876,0-3.93-0.237-6.104-0.705
		c-3.669-0.652-6.602-1.974-8.744-3.933c-2.097-1.913-3.928-4.253-5.445-6.956c-1.497-2.678-2.959-5.562-4.343-8.57
		c-1.362-2.965-3.139-5.934-5.279-8.824c-1.345-1.812-3.033-3.643-5.017-5.439c-1.162-1.049-2.183-1.901-3.214-2.685
		c-3.313-2.507-7.733-4.574-13.138-6.146l-3.354-0.723c-0.294-0.038-0.514-0.051-0.73-0.051c-2.114,0-4.062,1.229-4.961,3.131
		c-0.199,0.425-0.336,0.814-0.418,1.194l-3.17,14.714c-0.083,0.381-0.118,0.782-0.11,1.26c0.032,1.889,1.022,3.606,2.649,4.595
		c0.578,0.353,1.132,0.582,1.691,0.702L606.612,546.575z"/>
	<path fill="#255A8C" d="M660.029,373.98c-1.123,0-2.243-0.28-3.239-0.811l-13.295-7.059c-1.632-0.866-2.828-2.316-3.37-4.083
		c-0.541-1.768-0.362-3.639,0.504-5.27l7.06-13.295c1.204-2.267,3.548-3.675,6.117-3.675c1.121,0,2.24,0.279,3.236,0.809
		l13.295,7.061c1.631,0.866,2.828,2.317,3.369,4.084s0.361,3.638-0.506,5.269l-7.058,13.295
		C664.938,372.572,662.596,373.98,660.029,373.98z M653.806,341.189c-2.049,0-3.919,1.123-4.881,2.931l-7.06,13.295
		c-0.69,1.301-0.833,2.794-0.4,4.203c0.432,1.41,1.386,2.566,2.687,3.257l13.295,7.059c0.807,0.429,1.677,0.646,2.583,0.646
		c2.048,0,3.917-1.123,4.877-2.932l7.058-13.294c0.691-1.302,0.835-2.794,0.403-4.202s-1.386-2.565-2.687-3.258l-13.295-7.061
		C655.58,341.406,654.712,341.189,653.806,341.189z"/>
	<path fill="#255A8C" d="M620.258,478.073c-1.516,0-3.07-0.074-4.62-0.221c-6.479-0.613-13.081-2.686-19.621-6.158
		c-8.423-4.475-14.938-9.442-19.362-14.768c-4.421-5.325-7.488-10.718-9.116-16.025c-1.626-5.314-2.13-10.45-1.497-15.264
		c0.634-4.806,1.893-9.005,3.74-12.483c3.037-5.722,6.338-10.103,9.811-13.021c3.472-2.918,7.06-5.133,10.663-6.582
		c3.608-1.457,7.298-2.41,10.967-2.832c3.62-0.421,7.119-0.921,10.4-1.488c3.257-0.562,6.439-1.535,9.458-2.895
		c2.366-1.067,4.574-2.806,6.564-5.166l0.056-0.065l1.618-3.047c0.347-0.652,0.812-1.243,1.421-1.805
		c1.264-1.176,2.987-1.849,4.73-1.849c0.585,0,1.164,0.075,1.722,0.223c0.55,0.145,1.033,0.329,1.479,0.563l13.296,7.062
		c0.434,0.229,0.857,0.525,1.297,0.907c2.256,1.971,2.975,5.152,1.787,7.918l-0.04,0.084l-1.673,3.145
		c-3.053,4.888-6.371,8.719-9.837,11.337c-1.067,0.807-2.198,1.579-3.559,2.433c-2.348,1.469-4.652,2.636-6.849,3.468
		c-3.451,1.306-6.886,2.23-10.208,2.75c-3.219,0.504-6.354,1.117-9.318,1.822c-2.868,0.688-5.479,1.755-7.766,3.173
		c-2.235,1.382-4.138,3.665-5.655,6.785c-2.78,5.24-3.582,9.838-2.37,13.642c1.215,3.809,4.128,6.959,8.659,9.364
		c3.037,1.614,6.002,2.433,8.812,2.433c2.89-0.016,5.603-0.647,8.067-1.876c2.479-1.233,4.811-3.039,6.928-5.366
		c0.92-1.011,1.819-2.135,2.749-3.437l0.42-0.602l0.18-0.244c1.242-1.427,3.165-2.274,5.234-2.274c0.899,0,1.791,0.158,2.65,0.47
		c0.316,0.115,0.676,0.245,1.03,0.431l14.368,7.63c0.343,0.185,0.635,0.395,0.917,0.599c2.074,1.512,3.264,3.936,3.112,6.333
		c-0.048,0.755-1.213,3.022-1.55,3.5c-2.649,3.73-5.637,7.039-8.879,9.833c-2.098,1.812-4.359,3.443-6.915,4.987
		c-3.058,1.847-6.198,3.311-9.332,4.354C629.772,477.324,625.073,478.073,620.258,478.073z M628.772,382.006
		c-2.141,2.555-4.534,4.44-7.116,5.605c-3.124,1.407-6.42,2.417-9.796,3c-3.306,0.57-6.831,1.074-10.479,1.498
		c-3.542,0.407-7.11,1.329-10.604,2.739c-3.466,1.395-6.927,3.533-10.285,6.356c-3.334,2.803-6.521,7.044-9.475,12.606
		c-1.77,3.329-2.977,7.369-3.588,12.009c-0.607,4.613-0.12,9.549,1.448,14.671c1.572,5.13,4.551,10.358,8.854,15.541
		c4.305,5.183,10.678,10.035,18.941,14.424c6.376,3.387,12.801,5.406,19.097,6.004c1.49,0.141,2.988,0.212,4.454,0.212
		c4.693,0,9.256-0.725,13.562-2.151c3.037-1.011,6.082-2.432,9.051-4.225c2.485-1.502,4.685-3.087,6.723-4.848
		c3.157-2.722,6.068-5.946,8.652-9.583c0.304-0.433,1.113-2.111,1.271-2.69l0.023-0.085l0.004-0.089
		c0.089-1.894-0.878-3.814-2.523-5.012c-0.294-0.213-0.539-0.387-0.775-0.513l-14.36-7.625c-0.246-0.129-0.541-0.239-0.854-0.353
		c-0.686-0.248-1.404-0.374-2.136-0.374c-1.656,0-3.186,0.643-4.195,1.764l-0.035,0.039c0,0-0.371,0.537-0.502,0.719
		c-0.962,1.348-1.895,2.514-2.853,3.566c-2.233,2.455-4.702,4.364-7.339,5.677c-2.659,1.325-5.555,2.006-8.606,2.022
		c-3.096,0-6.312-0.874-9.553-2.597c-4.866-2.583-8.008-6.006-9.336-10.176c-1.331-4.178-0.505-9.123,2.456-14.7
		c1.631-3.356,3.701-5.818,6.165-7.341c2.41-1.496,5.161-2.621,8.176-3.345c3.006-0.715,6.179-1.335,9.429-1.845
		c3.23-0.505,6.571-1.404,9.93-2.676c2.105-0.797,4.326-1.922,6.601-3.344c1.325-0.833,2.424-1.583,3.458-2.363
		c3.32-2.51,6.513-6.198,9.492-10.964l1.609-3.031c0.94-2.256,0.359-4.767-1.414-6.316c-0.364-0.316-0.691-0.546-1.033-0.726
		l-13.295-7.061c-0.348-0.184-0.733-0.33-1.181-0.448c-0.456-0.12-0.925-0.181-1.393-0.181c-1.394,0-2.726,0.525-3.751,1.479
		c-0.493,0.456-0.866,0.927-1.137,1.437L628.772,382.006z"/>
	<path fill="#255A8C" d="M774.408,437.146c-2.117,0-3.918-1.586-4.188-3.689l-1.081-8.475c-0.145-1.119,0.157-2.228,0.849-3.121
		c0.69-0.894,1.688-1.464,2.808-1.607l8.474-1.081c0.181-0.023,0.361-0.034,0.54-0.034c2.118,0,3.919,1.587,4.188,3.692l1.081,8.474
		c0.294,2.311-1.349,4.432-3.659,4.728l-8.472,1.079C774.767,437.135,774.587,437.146,774.408,437.146z M781.808,420.539
		c-0.121,0-0.243,0.007-0.366,0.023l-8.469,1.08c-0.749,0.096-1.416,0.478-1.877,1.075c-0.462,0.598-0.663,1.339-0.568,2.087
		l1.081,8.475c0.181,1.406,1.381,2.467,2.792,2.467c0.123,0,0.248-0.008,0.374-0.024l8.468-1.078
		c1.545-0.198,2.643-1.617,2.447-3.163l-1.081-8.473C784.428,421.601,783.225,420.539,781.808,420.539z"/>
	<path fill="#255A8C" d="M732.662,462.244c-2.616-0.007-5.151-0.312-7.532-0.905c-1.553-0.387-3.064-0.905-4.621-1.586
		c-1.882-0.825-3.608-1.812-5.131-2.934c-2.851-2.104-5.239-4.812-7.099-8.051c-1.855-3.234-3.069-7.01-3.606-11.221
		c-0.69-5.407-0.519-10.091,0.511-13.92c1.03-3.83,2.542-7.053,4.495-9.579c1.958-2.528,4.205-4.471,6.681-5.773
		c2.466-1.296,4.858-2.099,7.111-2.386c1.522-0.194,2.971-0.293,4.304-0.293c1.884,0,3.585,0.195,5.058,0.582
		c2.517,0.661,4.747,1.611,6.628,2.824c1.878,1.21,3.548,2.625,4.964,4.208c1.41,1.571,2.783,3.023,4.083,4.318
		c1.309,1.31,2.782,2.449,4.377,3.389c1.214,0.714,2.675,1.153,4.343,1.305l0.087,0.008l1.911-0.245
		c0.163-0.021,0.322-0.031,0.481-0.031c0.288,0,0.58,0.032,0.919,0.103c1.427,0.3,2.583,1.291,3.089,2.649
		c0.124,0.335,0.203,0.643,0.24,0.939l1.08,8.472c0.038,0.297,0.04,0.613,0.005,0.965c-0.188,1.822-1.523,3.306-3.321,3.688
		l-2.128,0.271c-0.602,0.032-1.243,0.05-1.866,0.05c-2.533,0-4.785-0.307-6.691-0.912c-0.898-0.285-1.709-0.609-2.314-0.861
		c-1.47-0.616-2.784-1.312-3.904-2.066c-1.748-1.18-3.317-2.482-4.665-3.871c-1.292-1.331-2.597-2.577-3.877-3.704
		c-1.232-1.083-2.555-1.927-3.93-2.508c-0.848-0.36-1.831-0.544-2.922-0.544c-0.599,0-1.241,0.056-1.907,0.166
		c-3.259,0.416-5.591,1.511-6.904,3.249c-1.336,1.771-1.81,4.014-1.447,6.858c0.244,1.904,0.826,3.512,1.73,4.776
		c0.909,1.271,2.048,2.28,3.382,2.998c1.354,0.728,2.918,1.206,4.648,1.421c0.766,0.094,1.591,0.142,2.454,0.144l0.584-0.003
		c1.731,0.18,3.225,1.501,3.715,3.291c0.06,0.217,0.116,0.432,0.146,0.66l1.169,9.156c0.027,0.207,0.028,0.412,0.026,0.618
		c-0.024,1.632-0.775,3.022-2.062,3.812c-0.436,0.272-1.896,0.469-2.287,0.474H732.662z M727.783,406.995
		c-1.275,0-2.667,0.096-4.137,0.283c-2.084,0.267-4.316,1.019-6.636,2.236c-2.295,1.207-4.39,3.021-6.226,5.39
		c-1.839,2.382-3.269,5.438-4.25,9.086c-0.981,3.654-1.141,8.156-0.474,13.382c0.513,4.023,1.667,7.623,3.432,10.699
		c1.763,3.07,4.022,5.634,6.716,7.621c1.441,1.062,3.077,1.997,4.861,2.777c1.483,0.648,2.922,1.143,4.396,1.512
		c2.27,0.564,4.688,0.854,7.188,0.862c0.319-0.011,1.102-0.141,1.449-0.236l0.135-0.037l0.113-0.08
		c0.775-0.545,1.247-1.478,1.263-2.493c0.003-0.231,0.002-0.353-0.014-0.476l-1.169-9.159c-0.019-0.14-0.054-0.276-0.092-0.41
		c-0.348-1.268-1.294-2.153-2.427-2.311l-0.057-0.008l-0.486,0.002c-0.917-0.002-1.801-0.055-2.621-0.155
		c-1.901-0.234-3.631-0.766-5.139-1.576c-1.523-0.818-2.821-1.968-3.858-3.417c-1.04-1.454-1.707-3.276-1.98-5.414
		c-0.405-3.18,0.173-5.831,1.719-7.878c1.549-2.052,4.181-3.327,7.82-3.792c0.714-0.117,1.396-0.175,2.06-0.175
		c1.301,0,2.518,0.225,3.518,0.649c1.513,0.64,2.962,1.563,4.308,2.746c1.309,1.152,2.641,2.425,3.957,3.78
		c1.278,1.318,2.773,2.558,4.443,3.685c1.045,0.703,2.275,1.354,3.659,1.936c0.583,0.241,1.356,0.552,2.2,0.819
		c1.771,0.562,3.873,0.848,6.248,0.848c0.585,0,1.188-0.018,1.809-0.052l1.901-0.24c1.247-0.295,2.11-1.276,2.232-2.46
		c0.024-0.248,0.023-0.453-0.002-0.647l-1.079-8.47c-0.024-0.192-0.076-0.394-0.163-0.63c-0.338-0.906-1.109-1.565-2.064-1.766
		c-0.238-0.05-0.438-0.072-0.631-0.072c-0.104,0-0.208,0.007-0.313,0.021l-2.045,0.262l-0.07-0.005
		c-1.949-0.154-3.666-0.661-5.104-1.507c-1.697-1-3.265-2.213-4.657-3.604c-1.344-1.341-2.696-2.771-4.135-4.375
		c-1.332-1.49-2.907-2.824-4.681-3.965c-1.757-1.133-3.852-2.023-6.225-2.646C731.118,407.177,729.539,406.995,727.783,406.995z"/>
	<path fill="#255A8C" d="M127.75,541.203c-2.9-0.001-5.266-2.361-5.274-5.262l-0.024-11.073c-0.004-1.407,0.541-2.731,1.535-3.729
		c0.993-0.998,2.316-1.55,3.724-1.555l11.073-0.024c2.907,0,5.279,2.359,5.286,5.259l0.027,11.074
		c0.005,2.904-2.355,5.275-5.261,5.286L127.75,541.203L127.75,541.203z M126.951,540.503l1.6,0.003l0.003-0.705l10.277-0.022
		c2.135-0.007,3.869-1.749,3.865-3.882l-0.027-11.074c-0.005-2.13-1.741-3.862-3.871-3.862l-11.084,0.024
		c-1.033,0.002-2.004,0.408-2.734,1.142c-0.73,0.732-1.13,1.705-1.127,2.739l0.024,11.073c0.005,1.856,1.326,3.412,3.076,3.781
		V540.503z"/>
	<path fill="#255A8C" d="M127.663,512.392c-0.364,0-0.734-0.045-1.164-0.142c-2.226-0.518-3.855-2.4-4.048-4.685l-0.011-2.682
		c0.292-4.281,1.124-7.938,2.473-10.865c0.397-0.858,0.852-1.729,1.475-2.825c1.024-1.778,2.123-3.346,3.263-4.653
		c1.792-2.049,3.709-3.848,5.699-5.347c1.93-1.456,3.748-2.938,5.403-4.403c1.607-1.425,2.919-3.007,3.901-4.703
		c0.955-1.642,1.39-3.748,1.293-6.261c-0.011-4.313-1.065-7.535-3.132-9.547c-2.092-2.035-4.933-3.024-8.684-3.024
		c-2.56,0.007-4.771,0.505-6.574,1.481c-1.812,0.982-3.315,2.304-4.471,3.929c-1.17,1.646-2.048,3.604-2.608,5.819
		c-0.247,0.979-0.439,2.013-0.587,3.163l-0.105,0.8c-0.47,2.044-2.34,3.688-4.64,4.017c-0.277,0.043-0.543,0.08-0.845,0.081
		l-11.964,0.026c-0.302,0-0.567-0.034-0.831-0.071c-1.956-0.273-3.584-1.446-4.354-3.137c-0.259-0.564-0.271-2.522-0.222-2.908
		c0.429-3.355,1.225-6.553,2.365-9.502c0.74-1.916,1.646-3.767,2.771-5.657c1.354-2.273,2.892-4.322,4.572-6.091
		c3.144-3.307,6.989-5.927,11.429-7.785c4.436-1.857,9.46-2.805,14.935-2.817h0.161c6.971,0,12.888,0.971,17.588,2.886
		c4.731,1.931,8.611,4.38,11.529,7.278c2.913,2.902,5.034,6.083,6.303,9.454c1.259,3.354,1.902,6.536,1.91,9.457
		c0.011,4.786-0.617,8.797-1.867,11.92c-1.248,3.111-2.818,5.808-4.668,8.014c-1.845,2.208-3.921,4.115-6.17,5.671
		c-2.24,1.554-4.334,3.09-6.225,4.564c-1.907,1.481-3.625,3.205-5.102,5.123c-1.14,1.479-1.956,3.331-2.425,5.508l-0.018,0.084
		l0.007,2.52c0,0.556-0.1,1.119-0.307,1.723c-0.593,1.723-1.998,2.998-3.757,3.412c-0.431,0.101-0.824,0.15-1.201,0.15
		L127.663,512.392L127.663,512.392z M126.865,511.691l1.6,0.009l0.008-0.711l10.289-0.023c0.272,0,0.553-0.036,0.88-0.113
		c1.29-0.303,2.32-1.239,2.755-2.503c0.156-0.456,0.231-0.87,0.23-1.267l-0.007-2.663l0.015-0.071
		c0.506-2.452,1.421-4.55,2.72-6.234c1.549-2.01,3.35-3.817,5.35-5.372c1.917-1.495,4.032-3.046,6.288-4.61
		c2.148-1.485,4.131-3.31,5.894-5.42c1.754-2.092,3.25-4.661,4.442-7.636c1.183-2.955,1.777-6.789,1.766-11.395
		c-0.007-2.754-0.62-5.771-1.82-8.969c-1.198-3.183-3.21-6.194-5.98-8.953c-2.789-2.77-6.513-5.116-11.07-6.976
		c-4.532-1.846-10.272-2.781-17.06-2.781h-0.157c-5.29,0.012-10.134,0.923-14.399,2.708c-4.26,1.785-7.946,4.294-10.955,7.458
		c-1.609,1.694-3.084,3.66-4.384,5.843c-1.084,1.824-1.957,3.605-2.668,5.447c-1.099,2.842-1.867,5.928-2.283,9.173
		c-0.044,0.391,0.01,1.606,0.088,2.045l0.02,0.113l0.051,0.103c0.593,1.191,1.792,2.021,3.205,2.219
		c0.267,0.038,0.441,0.06,0.622,0.06l11.991-0.026c0.205-0.001,0.402-0.028,0.599-0.059c1.735-0.249,3.133-1.427,3.518-2.937
		l0.013-0.05l0.077-0.636c0.154-1.199,0.356-2.288,0.618-3.323c0.604-2.385,1.554-4.5,2.824-6.285
		c1.278-1.8,2.942-3.264,4.945-4.351c2.007-1.087,4.425-1.642,7.186-1.65c4.112,0.001,7.381,1.151,9.715,3.421
		c2.348,2.285,3.544,5.825,3.556,10.522c0.107,2.773-0.392,5.116-1.482,6.991c-1.056,1.825-2.464,3.523-4.184,5.049
		c-1.678,1.486-3.525,2.992-5.489,4.474c-1.915,1.442-3.761,3.176-5.487,5.15c-1.078,1.235-2.122,2.725-3.102,4.427
		c-0.6,1.056-1.037,1.892-1.418,2.717c-1.271,2.758-2.06,6.231-2.342,10.324l0.007,2.507c0.172,1.723,1.361,3.076,2.962,3.448
		c0.019,0.004,0.037,0.008,0.055,0.012V511.691z"/>
	<path fill="#255A8C" d="M546.998,395.063c-2.528,0-4.703-1.722-5.289-4.187l-2.646-11.172c-0.337-1.413-0.102-2.872,0.66-4.109
		c0.764-1.239,1.963-2.105,3.378-2.441l11.171-2.646c0.415-0.099,0.839-0.148,1.26-0.148c2.531,0,4.707,1.723,5.291,4.189
		l2.647,11.171c0.689,2.917-1.123,5.855-4.04,6.55l-11.173,2.646C547.845,395.014,547.421,395.063,546.998,395.063z M555.531,371.76
		c-0.312,0-0.626,0.037-0.936,0.11l-11.173,2.647c-1.049,0.248-1.94,0.892-2.508,1.812c-0.565,0.919-0.74,2.003-0.49,3.053
		l2.646,11.172c0.435,1.831,2.05,3.109,3.927,3.109c0.314,0,0.629-0.037,0.936-0.109l11.173-2.646c2.167-0.516,3.513-2.697,3-4.865
		l-2.647-11.171C559.025,373.039,557.41,371.76,555.531,371.76z"/>
	<path fill="#255A8C" d="M490.746,434.746c-1.879,0-3.749-0.127-5.557-0.378c-2.114-0.296-4.196-0.772-6.365-1.459
		c-2.606-0.826-5.037-1.893-7.224-3.17c-4.081-2.391-7.634-5.649-10.558-9.687c-2.922-4.036-5.067-8.882-6.375-14.403
		c-1.682-7.096-2.115-13.351-1.289-18.588c0.829-5.239,2.382-9.732,4.616-13.354c2.239-3.626,4.944-6.517,8.04-8.594
		c3.092-2.064,6.15-3.466,9.089-4.163c3.312-0.782,6.349-1.18,9.025-1.18c1.213,0,2.37,0.082,3.438,0.244
		c3.437,0.521,6.528,1.468,9.189,2.812c2.662,1.339,5.077,2.981,7.179,4.883c2.088,1.881,4.133,3.632,6.079,5.203
		c1.953,1.576,4.102,2.901,6.386,3.938c1.686,0.766,3.604,1.154,5.705,1.154c0.149,0,0.535-0.008,0.535-0.008l2.543-0.603
		c0.363-0.086,0.766-0.129,1.195-0.129c0.203,0,0.406,0.01,0.607,0.029c1.865,0.189,3.479,1.3,4.313,2.968
		c0.201,0.412,0.345,0.797,0.434,1.172l2.647,11.171c0.088,0.369,0.134,0.772,0.139,1.233c0.004,2.357-1.504,4.438-3.754,5.172
		l-2.75,0.653c-2.217,0.361-4.375,0.551-6.361,0.551c-0.001,0-0.001,0-0.001,0c-1.841,0-3.568-0.163-5.133-0.483
		c-0.973-0.202-1.989-0.463-3.197-0.819c-2.071-0.623-3.86-1.341-5.466-2.192c-2.491-1.322-4.759-2.83-6.74-4.481
		c-1.942-1.615-3.869-3.101-5.727-4.415c-1.832-1.291-3.742-2.242-5.679-2.827c-0.856-0.261-1.793-0.393-2.782-0.393
		c-1.19,0-2.488,0.191-3.857,0.569c-4.358,1.033-7.367,2.864-8.915,5.434c-1.548,2.576-1.879,5.789-0.986,9.551
		c0.603,2.55,1.627,4.65,3.044,6.245c1.423,1.601,3.118,2.808,5.037,3.591c1.938,0.792,4.125,1.215,6.501,1.256l0.397,0.004
		c0.93,0,1.887-0.052,2.935-0.159l0.831-0.085c2.166,0.004,4.261,1.497,5.131,3.72c0.095,0.236,0.207,0.518,0.28,0.833l2.859,12.067
		c0.073,0.305,0.1,0.59,0.124,0.865c0.186,2.022-0.609,3.93-2.127,5.103c-0.488,0.375-2.403,0.857-2.87,0.906
		C493.791,434.665,492.246,434.746,490.746,434.746z M484.129,361.169c-2.551,0-5.472,0.385-8.682,1.146
		c-2.776,0.658-5.681,1.992-8.633,3.964c-2.93,1.966-5.496,4.712-7.628,8.165c-2.136,3.463-3.624,7.781-4.425,12.836
		c-0.798,5.058-0.371,11.13,1.27,18.048c1.263,5.339,3.331,10.017,6.146,13.904c2.81,3.878,6.218,7.007,10.131,9.3
		c2.099,1.225,4.433,2.249,6.939,3.044c2.096,0.662,4.102,1.123,6.136,1.406c1.744,0.242,3.548,0.364,5.362,0.364
		c1.448,0,2.943-0.078,4.442-0.232c0.407-0.047,1.638-0.395,2.066-0.581l0.102-0.045l0.087-0.07c1.057-0.87,1.629-2.322,1.495-3.789
		c-0.023-0.269-0.044-0.471-0.093-0.673l-2.86-12.071c-0.048-0.205-0.121-0.395-0.195-0.581c-0.671-1.713-2.198-2.852-3.823-2.887
		l-0.056-0.001l-0.638,0.07c-1.11,0.114-2.123,0.17-3.095,0.17l-0.437-0.004c-2.543-0.044-4.9-0.502-6.999-1.361
		c-2.118-0.863-3.986-2.193-5.554-3.956c-1.572-1.769-2.702-4.075-3.359-6.853c-0.98-4.129-0.594-7.693,1.148-10.595
		c1.751-2.905,5.038-4.947,9.768-6.067c1.476-0.407,2.88-0.61,4.203-0.61c1.14,0,2.213,0.151,3.191,0.45
		c2.079,0.628,4.124,1.645,6.079,3.022c1.897,1.343,3.854,2.852,5.813,4.482c1.908,1.591,4.097,3.045,6.502,4.321
		c1.521,0.808,3.226,1.491,5.209,2.087c1.167,0.346,2.145,0.596,3.082,0.79c1.47,0.302,3.1,0.454,4.846,0.454
		c1.896,0,3.962-0.18,6.141-0.534l2.53-0.6c1.708-0.585,2.802-2.116,2.798-3.833c-0.003-0.352-0.036-0.65-0.102-0.919l-2.647-11.172
		c-0.063-0.271-0.167-0.55-0.325-0.872c-0.617-1.236-1.813-2.057-3.201-2.197c-0.158-0.015-0.315-0.022-0.472-0.022
		c-0.312,0-0.603,0.03-0.861,0.092l-2.841,0.64c-0.17,0.005-0.338,0.007-0.506,0.007c-2.342,0-4.476-0.43-6.342-1.278
		c-2.393-1.086-4.642-2.474-6.686-4.123c-1.971-1.591-4.036-3.357-6.14-5.254c-2.008-1.816-4.32-3.389-6.871-4.672
		c-2.53-1.278-5.48-2.18-8.769-2.678C486.373,361.247,485.279,361.169,484.129,361.169z"/>
	<path fill="#255A8C" d="M540.442,216.999l-7.74-0.459c-1.04-0.06-1.993-0.522-2.687-1.301c-0.693-0.779-1.041-1.782-0.979-2.824
		l0.459-7.74c0.12-2.061,1.827-3.674,3.886-3.674c0.079,0,0.159,0.002,0.239,0.007l7.742,0.459c2.146,0.128,3.791,1.979,3.664,4.126
		l-0.46,7.741c-0.12,2.059-1.831,3.671-3.894,3.671C540.597,217.006,540.52,217.003,540.442,216.999z M533.389,202.401
		c-1.322,0-2.419,1.035-2.497,2.356l-0.459,7.74c-0.039,0.669,0.185,1.312,0.629,1.811s1.056,0.795,1.723,0.833
		c0,0,7.844,0.462,7.845,0.462c1.368,0,2.463-1.033,2.541-2.352l0.46-7.741c0.08-1.377-0.975-2.564-2.351-2.646L533.389,202.401z"/>
	<path fill="#255A8C" d="M535.032,276.232c-0.639,0-1.288-0.019-1.946-0.059c-4.949-0.292-9.107-1.235-12.36-2.8
		c-3.255-1.567-5.884-3.463-7.813-5.635c-1.929-2.173-3.289-4.513-4.043-6.955c-0.743-2.432-1.058-4.71-0.936-6.769
		c0.2-3.378,0.819-6.18,1.837-8.327c1.015-2.143,2.241-3.979,3.646-5.458c1.398-1.477,2.945-2.733,4.602-3.733
		c1.611-0.978,3.138-1.958,4.536-2.915c1.385-0.947,2.645-2.067,3.745-3.327c0.833-0.952,1.465-2.168,1.876-3.615l0.023-0.084
		l0.104-1.74c0.023-0.414,0.123-0.825,0.302-1.258c0.517-1.245,1.611-2.124,2.929-2.351c0.252-0.042,0.472-0.062,0.688-0.062
		c0.069,0,0.138,0.002,0.206,0.006l7.741,0.458c0.272,0.016,0.559,0.067,0.875,0.158c1.617,0.484,2.739,1.951,2.781,3.646
		l-0.117,1.959c-0.385,2.954-1.132,5.499-2.213,7.509c-0.325,0.6-0.694,1.213-1.161,1.927c-0.817,1.236-1.639,2.266-2.509,3.144
		c-1.351,1.367-2.779,2.551-4.247,3.52c-1.428,0.946-2.757,1.9-3.953,2.836c-1.171,0.918-2.141,1.951-2.883,3.07
		c-0.716,1.075-1.1,2.491-1.137,4.209c-0.175,2.958,0.404,5.211,1.723,6.665c1.343,1.476,3.25,2.267,5.833,2.419
		c0.257,0.016,0.511,0.023,0.76,0.023c1.412,0,2.678-0.255,3.761-0.758c1.279-0.595,2.362-1.435,3.221-2.497
		c0.871-1.077,1.556-2.385,2.036-3.888c0.21-0.659,0.387-1.365,0.54-2.159l0.117-0.599c0.438-1.467,1.89-2.597,3.598-2.736
		c0.159-0.013,0.312-0.024,0.464-0.024c0.053,0,0.106,0.001,0.159,0.005l8.363,0.495c0.202,0.012,0.399,0.049,0.594,0.088
		c1.435,0.291,2.585,1.231,3.076,2.513c0.17,0.445,0.102,1.805,0.04,2.157c-0.448,2.342-1.147,4.56-2.077,6.588
		c-0.607,1.322-1.326,2.587-2.198,3.865c-1.051,1.54-2.225,2.918-3.489,4.096c-2.363,2.198-5.188,3.879-8.396,4.996
		C541.069,275.762,538.144,276.232,535.032,276.232z M529.55,226.925c-0.467,1.689-1.206,3.12-2.197,4.252
		c-1.18,1.35-2.528,2.547-4.008,3.561c-1.424,0.974-2.973,1.969-4.604,2.958c-1.549,0.937-2.998,2.114-4.309,3.499
		c-1.302,1.37-2.445,3.084-3.396,5.094c-0.941,1.983-1.515,4.611-1.706,7.81c-0.112,1.892,0.184,4.002,0.878,6.275
		c0.693,2.248,1.956,4.413,3.751,6.436c1.806,2.032,4.286,3.816,7.374,5.303s7.07,2.383,11.836,2.665
		c0.626,0.038,1.245,0.056,1.855,0.056c2.959,0,5.733-0.443,8.244-1.318c3.023-1.052,5.683-2.633,7.903-4.698
		c1.189-1.108,2.295-2.407,3.286-3.86c0.822-1.205,1.504-2.402,2.083-3.66c0.883-1.926,1.546-4.034,1.974-6.266
		c0.043-0.282,0.053-0.964,0.032-1.271l-0.01-0.152l-0.065-0.138c-0.352-0.744-1.082-1.293-1.953-1.471
		c-0.185-0.039-0.3-0.06-0.42-0.067l-8.389-0.496l-0.081-0.001c-0.098,0-0.182,0.007-0.26,0.014
		c-1.157,0.095-2.088,0.768-2.417,1.718l-0.021,0.059l-0.078,0.433c-0.162,0.842-0.353,1.604-0.581,2.321
		c-0.533,1.668-1.301,3.129-2.281,4.34c-0.992,1.229-2.243,2.201-3.72,2.888c-1.269,0.588-2.74,0.887-4.373,0.887
		c-0.271,0-0.545-0.008-0.823-0.024c-2.922-0.173-5.204-1.141-6.783-2.875c-1.582-1.744-2.284-4.323-2.085-7.664
		c0.043-1.98,0.504-3.627,1.37-4.927c0.824-1.244,1.896-2.386,3.186-3.397c1.227-0.959,2.587-1.935,4.043-2.901
		c1.387-0.916,2.741-2.038,4.023-3.336c0.805-0.812,1.568-1.771,2.335-2.929c0.439-0.671,0.788-1.249,1.1-1.822
		c0.994-1.849,1.685-4.212,2.055-7.027l0.104-1.729c-0.058-1.142-0.77-2.049-1.772-2.35c-0.214-0.061-0.396-0.094-0.564-0.104
		l-7.823-0.459c-0.22,0-0.354,0.017-0.491,0.04c-0.844,0.146-1.541,0.708-1.873,1.507c-0.118,0.287-0.183,0.549-0.198,0.803
		L529.55,226.925z"/>
	<path fill="#255A8C" d="M702.162,132.143c-1.04,0-2.079-0.26-3.004-0.751l-12.185-6.492c-1.509-0.8-2.615-2.14-3.115-3.774
		c-0.502-1.638-0.335-3.372,0.47-4.883l6.491-12.185c1.112-2.095,3.28-3.396,5.657-3.396c1.04,0,2.079,0.26,3.004,0.752l12.186,6.49
		c3.113,1.659,4.299,5.544,2.642,8.66l-6.491,12.186C706.702,130.842,704.536,132.143,702.162,132.143z M696.477,102.062
		c-1.858,0-3.552,1.017-4.421,2.653l-6.491,12.185c-0.629,1.18-0.76,2.535-0.367,3.815c0.391,1.276,1.254,2.323,2.433,2.948
		l12.187,6.492c0.734,0.39,1.522,0.587,2.346,0.587c1.855,0,3.549-1.015,4.418-2.65l6.491-12.186
		c1.295-2.435,0.369-5.47-2.063-6.767l-12.186-6.49C698.089,102.259,697.3,102.062,696.477,102.062z"/>
	<path fill="#255A8C" d="M665.614,227.572c-1.408,0-2.851-0.07-4.288-0.208c-5.947-0.569-12.007-2.479-18.011-5.678
		c-7.729-4.115-13.704-8.682-17.76-13.575c-4.056-4.896-6.867-9.852-8.355-14.73c-1.487-4.878-1.945-9.597-1.361-14.026
		c0.592-4.417,1.753-8.274,3.452-11.464c2.798-5.252,5.835-9.272,9.025-11.947c3.19-2.679,6.488-4.709,9.804-6.037
		c3.314-1.334,6.703-2.205,10.076-2.589c3.381-0.393,6.589-0.848,9.537-1.354c2.985-0.512,5.9-1.401,8.663-2.643
		c2.163-0.972,4.18-2.554,5.996-4.702l0.055-0.065l1.487-2.789c0.314-0.595,0.743-1.14,1.312-1.668
		c1.172-1.085,2.769-1.708,4.379-1.708c0.543,0,1.08,0.07,1.597,0.207c0.52,0.14,0.969,0.313,1.37,0.528l12.189,6.487
		c0.394,0.211,0.786,0.485,1.196,0.837c2.081,1.83,2.746,4.781,1.646,7.336l-0.039,0.082l-1.543,2.89
		c-2.804,4.478-5.856,7.993-9.044,10.4c-0.955,0.718-1.995,1.426-3.271,2.229c-2.208,1.373-4.27,2.413-6.299,3.177
		c-3.161,1.195-6.314,2.04-9.372,2.514c-3.001,0.468-5.876,1.027-8.546,1.662c-2.638,0.632-5.029,1.606-7.108,2.896
		c-2.048,1.263-3.788,3.347-5.17,6.191c-2.55,4.787-3.291,8.991-2.189,12.469c1.106,3.478,3.766,6.359,7.905,8.563
		c2.779,1.481,5.492,2.232,8.063,2.232c2.635-0.013,5.112-0.588,7.366-1.708c2.27-1.125,4.403-2.774,6.341-4.899
		c0.844-0.924,1.667-1.953,2.519-3.144l0.566-0.795c1.14-1.303,2.918-2.085,4.831-2.085c0.832,0,1.659,0.147,2.457,0.436
		c0.311,0.113,0.632,0.229,0.956,0.402l13.164,7.011c0.313,0.165,0.577,0.357,0.833,0.543c1.951,1.426,3.03,3.622,2.887,5.873
		c-0.048,0.708-1.128,2.803-1.438,3.24c-2.436,3.419-5.183,6.455-8.163,9.021c-1.943,1.671-4.022,3.165-6.354,4.568
		c-2.811,1.692-5.695,3.034-8.575,3.988C674.319,226.889,670.017,227.572,665.614,227.572z M673.519,139.456
		c-1.965,2.343-4.168,4.073-6.548,5.144c-2.871,1.29-5.899,2.213-9.001,2.745c-2.976,0.51-6.211,0.969-9.613,1.365
		c-3.249,0.37-6.518,1.21-9.714,2.498c-3.179,1.272-6.351,3.227-9.426,5.809c-3.052,2.559-5.976,6.44-8.689,11.534
		c-1.621,3.041-2.731,6.739-3.301,10.99c-0.558,4.23-0.116,8.75,1.312,13.433c1.436,4.7,4.158,9.493,8.095,14.246
		c3.941,4.753,9.776,9.205,17.341,13.232c5.842,3.112,11.725,4.97,17.485,5.521c1.38,0.132,2.768,0.199,4.124,0.199
		c4.277,0,8.442-0.659,12.38-1.958c2.78-0.921,5.569-2.219,8.292-3.858c2.261-1.361,4.277-2.811,6.163-4.43
		c2.895-2.493,5.564-5.443,7.935-8.771c0.293-0.412,1.006-1.908,1.157-2.427l0.026-0.092l0.004-0.096
		c0.075-1.708-0.801-3.444-2.286-4.531c-0.292-0.213-0.483-0.35-0.698-0.462l-13.166-7.012c-0.229-0.122-0.463-0.208-0.696-0.292
		c-0.706-0.256-1.375-0.375-2.049-0.375c-1.481,0-2.857,0.581-3.774,1.593l-0.034,0.037l-0.457,0.653
		c-0.886,1.24-1.746,2.314-2.625,3.278c-2.056,2.253-4.328,4.006-6.753,5.209c-2.447,1.216-5.113,1.84-7.924,1.854
		c-2.846,0-5.804-0.807-8.787-2.397c-4.474-2.382-7.36-5.537-8.581-9.376c-1.22-3.851-0.454-8.402,2.275-13.527
		c1.496-3.081,3.403-5.342,5.682-6.747c2.206-1.369,4.735-2.401,7.52-3.068c2.698-0.642,5.611-1.208,8.655-1.683
		c2.966-0.459,6.025-1.28,9.095-2.44c1.942-0.732,3.922-1.731,6.05-3.054c1.246-0.784,2.253-1.47,3.171-2.16
		c3.04-2.295,5.966-5.669,8.698-10.028l1.478-2.771c0.854-2.049,0.329-4.325-1.272-5.733c-0.332-0.284-0.636-0.497-0.938-0.658
		l-12.188-6.487c-0.312-0.167-0.653-0.298-1.072-0.411c-0.412-0.109-0.835-0.164-1.261-0.164c-1.262,0-2.47,0.475-3.402,1.338
		c-0.453,0.422-0.788,0.846-1.028,1.299L673.519,139.456z"/>
	<path fill="#255A8C" d="M414.128,85.906c-1.951,0-3.63-1.329-4.082-3.231l-1.952-8.245c-0.261-1.091-0.08-2.217,0.509-3.172
		c0.589-0.956,1.515-1.625,2.607-1.883l8.244-1.953c0.319-0.076,0.646-0.115,0.972-0.115c1.952,0,3.631,1.329,4.083,3.232
		l1.954,8.245c0.533,2.251-0.865,4.519-3.118,5.055l-8.246,1.953C414.779,85.868,414.452,85.906,414.128,85.906z M420.426,68.708
		c-0.217,0-0.436,0.026-0.649,0.077l-8.244,1.953c-0.729,0.173-1.346,0.619-1.738,1.255c-0.392,0.637-0.512,1.387-0.338,2.113
		l1.952,8.245c0.297,1.248,1.444,2.153,2.73,2.153c0.214,0,0.428-0.025,0.637-0.075l8.247-1.953c1.503-0.357,2.434-1.87,2.077-3.371
		l-1.953-8.244C422.846,69.594,421.727,68.708,420.426,68.708z"/>
	<path fill="#255A8C" d="M372.613,115.192c-1.395,0-2.783-0.095-4.126-0.281c-1.575-0.22-3.121-0.575-4.726-1.083
		c-1.936-0.614-3.742-1.407-5.369-2.356c-3.035-1.777-5.676-4.2-7.848-7.199c-2.17-2.997-3.763-6.595-4.734-10.695
		c-1.247-5.261-1.568-9.901-0.955-13.79c0.617-3.89,1.771-7.229,3.433-9.922c1.666-2.697,3.68-4.85,5.988-6.397
		c2.3-1.537,4.578-2.58,6.768-3.099c2.455-0.582,4.708-0.876,6.697-0.876c0.906,0,1.771,0.062,2.569,0.183
		c2.555,0.387,4.855,1.091,6.837,2.093c1.98,0.996,3.775,2.217,5.338,3.631c1.544,1.391,3.051,2.68,4.479,3.833
		c1.43,1.154,3.001,2.124,4.672,2.883c1.218,0.553,2.63,0.833,4.196,0.833l0.312-0.004l1.856-0.439
		c0.285-0.067,0.595-0.102,0.924-0.102c0.155,0,0.311,0.008,0.465,0.023c1.443,0.147,2.689,1.004,3.332,2.292
		c0.152,0.309,0.263,0.604,0.333,0.901l1.955,8.247c0.068,0.283,0.103,0.584,0.108,0.949c0.002,1.819-1.162,3.43-2.897,3.996
		l-0.087,0.024l-1.984,0.466c-1.633,0.266-3.237,0.406-4.713,0.406l0,0c-1.371,0-2.657-0.121-3.823-0.359
		c-0.727-0.151-1.482-0.345-2.375-0.608c-1.542-0.464-2.874-0.998-4.067-1.632c-1.85-0.981-3.534-2.101-5.007-3.329
		c-1.424-1.185-2.841-2.277-4.214-3.249c-1.337-0.942-2.729-1.635-4.138-2.061c-0.615-0.188-1.289-0.283-2.001-0.283
		c-0.862,0-1.803,0.14-2.798,0.415c-3.168,0.751-5.354,2.075-6.47,3.927c-1.132,1.885-1.363,4.146-0.707,6.912
		c0.437,1.85,1.179,3.374,2.205,4.529c1.031,1.159,2.259,2.034,3.65,2.602c1.407,0.576,2.999,0.883,4.731,0.913l0.291,0.003
		c0.675,0,1.374-0.038,2.146-0.116l0.65-0.065c1.655,0.004,3.271,1.153,3.94,2.862c0.082,0.207,0.162,0.415,0.214,0.64l2.11,8.906
		c0.052,0.215,0.074,0.431,0.094,0.645c0.143,1.567-0.469,3.042-1.638,3.947c-0.424,0.325-1.897,0.669-2.214,0.707
		C374.872,115.132,373.725,115.192,372.613,115.192z M367.729,60.892c-1.868,0-4.009,0.283-6.364,0.84
		c-2.027,0.48-4.151,1.456-6.312,2.9c-2.141,1.435-4.016,3.443-5.575,5.969c-1.563,2.535-2.654,5.699-3.241,9.406
		c-0.585,3.707-0.271,8.164,0.934,13.248c0.929,3.919,2.445,7.35,4.506,10.196c2.058,2.841,4.555,5.133,7.422,6.812
		c1.535,0.897,3.245,1.647,5.084,2.23c1.531,0.484,3.001,0.822,4.497,1.031c1.273,0.177,2.597,0.266,3.935,0.266
		c1.069,0,2.165-0.057,3.258-0.17c0.315-0.043,1.087-0.264,1.393-0.384l0.131-0.051l0.105-0.092
		c0.702-0.614,1.067-1.581,0.975-2.584c-0.019-0.213-0.033-0.342-0.064-0.472l-2.11-8.908c-0.033-0.14-0.082-0.269-0.133-0.395
		c-0.473-1.208-1.498-1.984-2.628-2.022l-0.059-0.002l-0.461,0.052c-0.827,0.084-1.582,0.126-2.299,0.126l-0.331-0.003
		c-1.899-0.034-3.661-0.376-5.229-1.018c-1.59-0.649-2.992-1.647-4.167-2.968c-1.181-1.33-2.029-3.058-2.521-5.136
		c-0.734-3.096-0.441-5.773,0.87-7.957c1.317-2.188,3.781-3.723,7.323-4.562c1.1-0.304,2.146-0.455,3.141-0.455
		c0.862,0,1.674,0.114,2.413,0.339c1.552,0.47,3.079,1.229,4.539,2.257c1.401,0.991,2.849,2.107,4.302,3.317
		c1.399,1.167,3.003,2.232,4.767,3.168c1.111,0.59,2.357,1.09,3.812,1.527c0.854,0.252,1.571,0.436,2.258,0.579
		c1.073,0.22,2.263,0.332,3.539,0.332c1.386,0,2.896-0.131,4.487-0.39l1.85-0.438c1.197-0.419,1.946-1.477,1.944-2.654
		c-0.004-0.247-0.026-0.449-0.068-0.63l-1.955-8.251c-0.047-0.194-0.119-0.385-0.227-0.604c-0.427-0.855-1.255-1.423-2.217-1.521
		c-0.11-0.011-0.22-0.016-0.33-0.016c-0.216,0-0.416,0.021-0.593,0.063l-2.151,0.478c-0.109,0.002-0.218,0.003-0.326,0.003
		c-1.78,0-3.393-0.322-4.792-0.958c-1.779-0.808-3.452-1.84-4.973-3.068c-1.446-1.167-2.973-2.473-4.538-3.883
		c-1.47-1.33-3.163-2.481-5.031-3.42c-1.848-0.935-4.007-1.594-6.417-1.959C369.363,60.948,368.565,60.892,367.729,60.892z"/>
	<path fill="#255A8C" d="M414.235,228.287c1.46,2.507,1.188,5.689-0.673,7.916l-9.649,11.553c-1.183,1.417-2.849,2.289-4.688,2.455
		c-1.841,0.166-3.636-0.397-5.052-1.582l-11.554-9.649c-0.622-0.518-1.142-1.135-1.546-1.828c-1.458-2.507-1.19-5.687,0.671-7.916
		l9.649-11.552c2.446-2.927,6.817-3.317,9.744-0.873l11.554,9.649C413.312,226.979,413.833,227.595,414.235,228.287z
		 M382.284,236.447c0.322,0.555,0.737,1.044,1.233,1.459l11.553,9.648c1.131,0.945,2.562,1.392,4.028,1.261
		c1.469-0.132,2.798-0.827,3.742-1.958l9.649-11.552c1.484-1.776,1.7-4.314,0.535-6.314c-0.321-0.552-0.735-1.043-1.231-1.458
		l-11.553-9.648c-2.334-1.95-5.821-1.639-7.773,0.697l-9.649,11.553C381.334,231.911,381.121,234.447,382.284,236.447z"/>
	<path fill="#255A8C" d="M389.111,258.354c1.348,2.317,1.217,5.236-0.334,7.439l-2.343,2.802c-3.994,4.155-8.033,7.22-11.963,9.067
		c-1.204,0.565-2.468,1.089-3.984,1.645c-2.608,0.957-5.104,1.623-7.417,1.982c-3.644,0.565-7.194,0.762-10.554,0.584
		c-3.277-0.17-6.473-0.218-9.495-0.139c-2.947,0.083-5.724,0.588-8.254,1.504c-2.477,0.894-4.809,2.737-6.932,5.473
		c-3.801,4.554-5.534,8.887-5.134,12.858c0.195,1.924,0.818,3.802,1.853,5.578c1.094,1.879,2.672,3.688,4.69,5.373
		c2.666,2.229,5.423,3.646,8.196,4.213c2.778,0.569,5.537,0.506,8.207-0.187c2.683-0.698,5.335-1.983,7.884-3.821
		c1.115-0.806,2.227-1.721,3.398-2.799c0.218-0.2,0.435-0.404,0.649-0.61l0.097-0.079c2.234-1.69,5.505-1.766,8.102-0.152
		c0.289,0.18,0.616,0.38,0.923,0.638l12.482,10.426c0.297,0.248,0.548,0.526,0.77,0.771c0.375,0.416,0.707,0.867,0.982,1.341
		c1,1.717,1.269,3.668,0.763,5.499c-0.205,0.732-1.812,2.71-2.239,3.105c-3.359,3.103-6.966,5.725-10.716,7.792
		c-2.434,1.343-4.984,2.472-7.794,3.454c-3.374,1.175-6.748,1.961-10.03,2.332c-6.129,0.692-12.387,0.063-18.601-1.871
		c-6.212-1.933-12.245-5.322-17.931-10.073c-6.724-5.616-11.798-11.324-15.082-16.968c-0.287-0.492-0.559-0.983-0.817-1.475
		c-3.229-6.122-5.118-12.031-5.616-17.561c-0.494-5.534,0.072-10.663,1.684-15.247c1.613-4.569,3.709-8.42,6.234-11.44
		c4.151-4.971,8.285-8.576,12.284-10.718c3.991-2.138,7.96-3.564,11.791-4.244c3.836-0.681,7.642-0.853,11.316-0.509
		c3.647,0.338,7.175,0.569,10.485,0.691c3.311,0.119,6.625-0.177,9.852-0.884c2.537-0.558,5.056-1.801,7.489-3.7l0.067-0.052
		l2.212-2.648c0.469-0.562,1.043-1.044,1.761-1.474c2.045-1.23,4.531-1.327,6.65-0.259c0.514,0.259,0.95,0.537,1.332,0.857
		l11.554,9.65c0.377,0.316,0.731,0.694,1.081,1.157C388.827,257.896,388.977,258.122,389.111,258.354L389.111,258.354z
		 M323.342,307.847c-1.135-1.949-1.816-4.014-2.034-6.135c-0.44-4.362,1.389-9.031,5.438-13.876
		c2.283-2.945,4.816-4.928,7.545-5.913c2.671-0.967,5.595-1.501,8.69-1.584c3.063-0.082,6.296-0.034,9.606,0.138
		c3.263,0.173,6.716-0.019,10.265-0.569c2.228-0.348,4.633-0.99,7.151-1.913c1.48-0.546,2.709-1.054,3.871-1.597
		c3.766-1.771,7.65-4.724,11.55-8.773l2.2-2.633c1.245-1.807,1.335-4.112,0.276-5.932c-0.109-0.187-0.227-0.365-0.358-0.539
		c-0.284-0.377-0.566-0.678-0.86-0.924l-11.553-9.65c-0.3-0.249-0.648-0.473-1.063-0.682c-1.689-0.851-3.67-0.772-5.301,0.208
		c-0.578,0.348-1.04,0.729-1.406,1.171l-2.425,2.854c-2.624,2.06-5.354,3.41-8.121,4.016c-3.343,0.733-6.774,1.041-10.201,0.917
		c-3.342-0.124-6.896-0.356-10.563-0.695c-3.549-0.333-7.23-0.167-10.942,0.492c-3.686,0.653-7.513,2.032-11.375,4.099
		c-3.84,2.058-7.834,5.551-11.871,10.384c-2.417,2.891-4.431,6.596-5.987,11.007c-1.544,4.39-2.085,9.321-1.609,14.655
		c0.482,5.347,2.318,11.075,5.459,17.033c0.249,0.473,0.513,0.946,0.787,1.42c3.204,5.505,8.173,11.091,14.771,16.603
		c5.546,4.632,11.417,7.933,17.449,9.81c6.027,1.877,12.094,2.488,18.028,1.819c3.181-0.363,6.453-1.124,9.728-2.266
		c2.73-0.953,5.211-2.053,7.579-3.358c3.654-2.014,7.166-4.567,10.441-7.591c0.384-0.357,1.522-1.833,1.8-2.372l0.04-0.078
		l0.021-0.086c0.37-1.415,0.125-3.011-0.668-4.375c-0.219-0.376-0.477-0.729-0.767-1.051c-0.236-0.26-0.443-0.484-0.647-0.656
		l-12.483-10.426c-0.209-0.175-0.473-0.342-0.754-0.519c-2.074-1.287-4.683-1.267-6.486,0.047l-0.043,0.032
		c0,0-0.439,0.415-0.64,0.6c-1.21,1.115-2.366,2.066-3.529,2.904c-2.69,1.94-5.5,3.3-8.35,4.04c-2.879,0.749-5.852,0.816-8.84,0.204
		c-3.001-0.614-5.965-2.132-8.812-4.51C326.205,311.808,324.522,309.873,323.342,307.847z"/>
	<g id="Layer_5_1_">
		<rect fill="none" width="800" height="599.604"/>
	</g>
</g>
</svg>
