<?xml version="1.0" encoding="utf-8"?>
<!-- Generator: Adobe Illustrator 16.0.4, SVG Export Plug-In . SVG Version: 6.00 Build 0)  -->
<!DOCTYPE svg PUBLIC "-//W3C//DTD SVG 1.1//EN" "http://www.w3.org/Graphics/SVG/1.1/DTD/svg11.dtd">
<svg version="1.1" id="Layer_1" xmlns="http://www.w3.org/2000/svg" xmlns:xlink="http://www.w3.org/1999/xlink" x="0px" y="0px"
	 width="800px" height="600px" viewBox="0 0 800 600" enable-background="new 0 0 800 600" xml:space="preserve">
<g id="Layer_5">
	<rect fill="none" width="800" height="599.604"/>
</g>
<g id="Layer_1_1_">
	<path fill="#204C75" d="M494.048,205.821c-3.457-9.251-9.188-17.881-17.194-25.895c-8.017-8.009-18.582-14.709-31.695-20.096
		c-13.123-5.385-29.489-8.078-49.099-8.078c-15.193,0-28.938,2.557-41.223,7.664c-12.295,5.114-22.787,12.223-31.487,21.337
		c-4.821,5.051-8.99,10.663-12.625,16.732c-2.923,4.883-5.524,10.042-7.678,15.585c-3.189,8.195-5.382,16.933-6.587,26.209
		c-0.176,1.361,0.019,6.169,0.446,7.113c1.829,4.036,5.817,7.01,10.652,7.696c0.689,0.097,1.383,0.196,2.101,0.196h33.608
		c0.718,0,1.41-0.099,2.102-0.196c5.701-0.808,10.268-4.785,11.463-9.959c0.069-0.622,0.145-1.241,0.227-1.857
		c0.41-3.129,0.966-6.174,1.715-9.108c1.656-6.487,4.207-12.151,7.666-16.987c3.45-4.829,7.869-8.701,13.258-11.601
		c5.385-2.899,11.807-4.35,19.265-4.35c11.044,0,19.683,3.042,25.896,9.115c6.215,6.079,9.32,15.472,9.32,28.173
		c0.271,7.459-1.035,13.674-3.936,18.646c-2.898,4.971-6.699,9.528-11.393,13.671c-4.703,4.144-9.81,8.286-15.332,12.43
		c-5.526,4.144-10.771,9.053-15.742,14.711c-3.269,3.719-6.239,7.998-8.971,12.73c-1.424,2.473-2.805,5.028-4.084,7.776
		c-3.727,8.016-6.006,17.957-6.834,29.83v7.217c0.465,5.607,4.475,10.182,9.82,11.43c0.94,0.219,1.91,0.363,2.92,0.363h31.105
		c1.01,0,1.979-0.146,2.918-0.363c4.305-1.008,7.738-4.171,9.17-8.292c0.457-1.317,0.759-2.718,0.759-4.19v-7.283
		c1.36-6.498,3.76-12.102,7.321-16.694c4.277-5.523,9.177-10.423,14.705-14.707c5.523-4.278,11.396-8.56,17.609-12.849
		c6.217-4.277,11.873-9.457,16.986-15.535c5.109-6.072,9.389-13.395,12.846-21.959c3.449-8.558,5.178-19.473,5.178-32.73
		C499.227,223.707,497.497,215.079,494.048,205.821z"/>
	<g>
		<path fill="#204C75" d="M421.93,375.541H372.9c-2.543,0-4.613,2.469-4.613,5.5v22.5c0,3.033,2.069,5.5,4.613,5.5h49.03
			c2.545,0,4.613-2.467,4.613-5.5v-22.5C426.543,378.01,424.475,375.541,421.93,375.541z"/>
		<path fill="#204C75" d="M421.93,416.152H372.9c-2.543,0-4.613,2.469-4.613,5.5v22.5c0,3.032,2.069,5.5,4.613,5.5h49.03
			c2.545,0,4.613-2.468,4.613-5.5v-22.5C426.543,418.621,424.475,416.152,421.93,416.152z"/>
		<path fill="#204C75" d="M421.93,456.764H372.9c-2.543,0-4.613,2.47-4.613,5.5v22.5c0,3.033,2.069,5.5,4.613,5.5h49.03
			c2.545,0,4.613-2.467,4.613-5.5v-22.5C426.543,459.232,424.475,456.764,421.93,456.764z"/>
		<path fill="#204C75" d="M421.93,497.375H372.9c-2.543,0-4.613,2.469-4.613,5.5v22.5c0,3.033,2.069,5.5,4.613,5.5h49.03
			c2.545,0,4.613-2.467,4.613-5.5v-22.5C426.543,499.844,424.475,497.375,421.93,497.375z"/>
	</g>
	
		<linearGradient id="SVGID_1_" gradientUnits="userSpaceOnUse" x1="596.998" y1="75.2554" x2="596.998" y2="105.7554" gradientTransform="matrix(1 0 0 -1 -195.5 480)">
		<stop  offset="0" style="stop-color:#2DABD2"/>
		<stop  offset="1" style="stop-color:#55BDDD"/>
	</linearGradient>
	<path fill="url(#SVGID_1_)" stroke="#FFFFFF" stroke-width="2" stroke-miterlimit="10" d="M429.126,400.745
		c0,2.209-1.394,4-3.112,4h-49.031c-1.719,0-3.113-1.791-3.113-4v-22.5c0-2.209,1.394-4,3.113-4h49.031c1.719,0,3.112,1.791,3.112,4
		V400.745z"/>
	
		<linearGradient id="SVGID_2_" gradientUnits="userSpaceOnUse" x1="596.998" y1="34.644" x2="596.998" y2="65.145" gradientTransform="matrix(1 0 0 -1 -195.5 480)">
		<stop  offset="0" style="stop-color:#F39200"/>
		<stop  offset="0.9989" style="stop-color:#F9B233"/>
	</linearGradient>
	<path fill="url(#SVGID_2_)" stroke="#FFFFFF" stroke-width="2" stroke-miterlimit="10" d="M429.126,441.356
		c0,2.209-1.394,4-3.112,4h-49.031c-1.719,0-3.113-1.791-3.113-4v-22.501c0-2.209,1.394-4,3.113-4h49.031
		c1.719,0,3.112,1.791,3.112,4V441.356z"/>
	
		<linearGradient id="SVGID_3_" gradientUnits="userSpaceOnUse" x1="596.998" y1="-5.9673" x2="596.998" y2="24.5327" gradientTransform="matrix(1 0 0 -1 -195.5 480)">
		<stop  offset="0" style="stop-color:#439C54"/>
		<stop  offset="1" style="stop-color:#60B565"/>
	</linearGradient>
	<path fill="url(#SVGID_3_)" stroke="#FFFFFF" stroke-width="2" stroke-miterlimit="10" d="M429.126,481.968
		c0,2.209-1.394,4-3.112,4h-49.031c-1.719,0-3.113-1.791-3.113-4v-22.5c0-2.209,1.394-4,3.113-4h49.031c1.719,0,3.112,1.791,3.112,4
		V481.968z"/>
	
		<linearGradient id="SVGID_4_" gradientUnits="userSpaceOnUse" x1="596.998" y1="-46.5786" x2="596.998" y2="-16.0786" gradientTransform="matrix(1 0 0 -1 -195.5 480)">
		<stop  offset="0" style="stop-color:#D04245"/>
		<stop  offset="1" style="stop-color:#DF5D58"/>
	</linearGradient>
	<path fill="url(#SVGID_4_)" stroke="#FFFFFF" stroke-width="2" stroke-miterlimit="10" d="M429.126,522.579
		c0,2.209-1.394,4-3.112,4h-49.031c-1.719,0-3.113-1.791-3.113-4v-22.5c0-2.209,1.394-4,3.113-4h49.031c1.719,0,3.112,1.791,3.112,4
		V522.579z"/>
	<path fill="#266197" stroke="#FFFFFF" stroke-width="2" stroke-miterlimit="10" d="M498.714,201.488
		c-3.456-9.251-9.188-17.881-17.194-25.896c-8.016-8.009-18.582-14.709-31.694-20.096c-13.123-5.385-29.489-8.078-49.099-8.078
		c-15.192,0-28.938,2.557-41.224,7.664c-12.295,5.114-22.787,12.223-31.487,21.337c-4.821,5.051-8.99,10.663-12.625,16.732
		c-2.923,4.883-5.524,10.042-7.678,15.585c-3.189,8.195-5.382,16.933-6.587,26.209c-0.176,1.361,0.019,6.169,0.446,7.113
		c1.829,4.036,5.817,7.01,10.652,7.696c0.689,0.097,1.383,0.196,2.101,0.196h33.607c0.718,0,1.411-0.099,2.102-0.196
		c5.702-0.808,10.269-4.785,11.464-9.959c0.069-0.622,0.144-1.241,0.226-1.857c0.411-3.129,0.966-6.174,1.715-9.108
		c1.656-6.487,4.207-12.151,7.667-16.987c3.45-4.829,7.869-8.701,13.258-11.601c5.385-2.899,11.806-4.35,19.264-4.35
		c11.044,0,19.683,3.042,25.896,9.115c6.217,6.079,9.32,15.472,9.32,28.173c0.272,7.459-1.033,13.674-3.936,18.646
		c-2.898,4.971-6.699,9.528-11.393,13.671c-4.701,4.144-9.809,8.286-15.332,12.43c-5.524,4.144-10.77,9.053-15.742,14.71
		c-3.268,3.72-6.239,7.998-8.97,12.73c-1.424,2.473-2.804,5.028-4.083,7.776c-3.727,8.017-6.006,17.959-6.834,29.83v7.219
		c0.464,5.606,4.475,10.181,9.82,11.429c0.941,0.219,1.911,0.364,2.92,0.364h31.104c1.012,0,1.979-0.146,2.92-0.364
		c4.305-1.007,7.738-4.171,9.17-8.292c0.457-1.316,0.759-2.719,0.759-4.191v-7.281c1.36-6.5,3.759-12.103,7.321-16.695
		c4.277-5.523,9.177-10.424,14.705-14.707c5.522-4.278,11.396-8.561,17.609-12.848c6.217-4.278,11.873-9.457,16.986-15.535
		c5.109-6.072,9.389-13.395,12.845-21.959c3.45-8.558,5.179-19.473,5.179-32.73C503.893,219.374,502.164,210.746,498.714,201.488z"
		/>
</g>
<g id="Layer_2" display="none">
	<g display="inline">
		<path fill="#255A8C" d="M206.361,172.275c-1.104-3.043-4.02-5.087-7.256-5.087c-0.896,0-1.782,0.156-2.63,0.464l-14.15,5.132
			c-1.938,0.702-3.486,2.118-4.359,3.985c-0.873,1.868-0.967,3.963-0.264,5.9l5.132,14.15c1.104,3.043,4.02,5.088,7.256,5.088
			c0.896,0,1.781-0.156,2.629-0.464l14.15-5.132c4-1.451,6.075-5.886,4.625-9.887L206.361,172.275z M205.846,193.492l-14.15,5.132
			c-0.52,0.188-1.061,0.284-1.607,0.284c-1.978,0-3.761-1.25-4.436-3.111l-5.132-14.151c-0.43-1.184-0.373-2.465,0.162-3.606
			c0.534-1.141,1.48-2.006,2.664-2.436l14.151-5.132c0.52-0.189,1.061-0.285,1.607-0.285c1.978,0,3.761,1.25,4.436,3.111
			l5.133,14.15C209.56,189.894,208.292,192.605,205.846,193.492z"/>
		<path fill="#255A8C" d="M205.111,70.51c-3.224-3.785-7.463-6.924-12.602-9.329c-5.127-2.396-11.286-3.759-18.307-4.053
			c-7.009-0.292-15.175,1.226-24.242,4.514c-7.066,2.562-13.119,6.126-17.993,10.594c-4.879,4.474-8.635,9.656-11.165,15.405
			c-1.353,3.08-2.389,6.449-3.081,10.013c-0.574,2.966-0.885,5.781-0.949,8.607c-0.101,4.347,0.357,8.846,1.363,13.375
			c0.121,0.537,1.053,3.147,1.767,3.881c1.852,1.896,4.64,2.764,7.527,2.158c0.35-0.074,0.746-0.159,1.162-0.31l15.288-5.545
			c0.424-0.153,0.789-0.347,1.118-0.522c2.989-1.589,4.74-4.775,4.356-7.927l-0.03-0.167c-0.068-0.287-0.135-0.572-0.197-0.857
			c-0.335-1.521-0.563-2.912-0.695-4.251c-0.297-3.028-0.083-5.868,0.637-8.442c0.709-2.536,1.985-4.847,3.792-6.87
			c1.795-2.01,4.298-3.607,7.438-4.747c4.621-1.675,8.698-1.737,12.152-0.17c3.432,1.559,6.158,5.066,8.121,10.476
			c1.241,3.069,1.644,5.862,1.2,8.301c-0.466,2.563-1.397,5.137-2.767,7.648c-1.442,2.635-3.078,5.354-4.863,8.083
			c-1.873,2.86-3.514,6.078-4.877,9.563c-0.873,2.23-1.565,4.773-2.061,7.56c-0.285,1.618-0.473,2.996-0.591,4.34
			c-0.388,4.426,0.24,9.555,1.864,15.243l1.224,3.383l0.047,0.114c1.254,2.731,3.997,4.495,6.988,4.496
			c0.301,0,0.603-0.018,0.906-0.054c0.636-0.076,1.2-0.206,1.722-0.396l14.151-5.132c0.527-0.191,1.042-0.454,1.575-0.801
			c2.22-1.445,3.522-3.898,3.484-6.56c-0.012-0.926-0.155-1.752-0.436-2.525l-1.147-3.165c-0.401-2.939-0.22-5.623,0.538-7.98
			c0.991-3.082,2.373-6.034,4.105-8.777c1.762-2.787,3.729-5.707,5.844-8.678c2.186-3.06,3.987-6.5,5.352-10.226
			c1.37-3.732,2.147-7.962,2.312-12.573c0.164-4.638-0.891-10.125-3.134-16.309C210.633,78.105,208.312,74.274,205.111,70.51z
			 M212.144,98.101c-0.153,4.293-0.87,8.211-2.13,11.646c-1.272,3.473-2.947,6.673-4.978,9.516
			c-2.149,3.017-4.146,5.984-5.938,8.817c-1.868,2.956-3.356,6.139-4.424,9.46c-0.912,2.834-1.124,6.021-0.631,9.474l1.276,3.613
			c0.164,0.453,0.248,0.957,0.255,1.543c0.023,1.627-0.77,3.125-2.122,4.005c-0.339,0.221-0.653,0.382-0.96,0.494l-14.152,5.132
			c-0.305,0.111-0.649,0.188-1.054,0.237c-0.184,0.022-0.367,0.033-0.55,0.033l0,0c-1.803,0-3.46-1.056-4.237-2.695l-1.151-3.171
			c-1.513-5.314-2.101-10.06-1.747-14.106c0.111-1.254,0.288-2.552,0.557-4.08c0.46-2.591,1.1-4.942,1.9-6.99
			c1.289-3.293,2.834-6.326,4.594-9.014c1.828-2.794,3.504-5.582,4.985-8.287c1.524-2.795,2.562-5.671,3.085-8.549
			c0.548-3.007,0.087-6.359-1.351-9.912c-2.229-6.146-5.486-10.229-9.681-12.134c-4.17-1.891-9.04-1.866-14.416,0.082
			c-3.612,1.311-6.523,3.184-8.653,5.569c-2.115,2.367-3.609,5.079-4.443,8.06c-0.821,2.933-1.068,6.144-0.734,9.544
			c0.144,1.459,0.389,2.965,0.75,4.603c0.06,0.272,0.123,0.545,0.188,0.818c0.196,1.905-0.919,3.841-2.802,4.842
			c-0.256,0.136-0.498,0.265-0.724,0.346l-15.289,5.545c-0.221,0.08-0.484,0.136-0.786,0.2c-1.728,0.363-3.538-0.135-4.683-1.272
			c-0.273-0.426-0.94-2.06-1.037-2.491c-0.953-4.289-1.387-8.545-1.292-12.651c0.061-2.656,0.353-5.308,0.895-8.105
			c0.649-3.345,1.619-6.5,2.882-9.376c2.36-5.365,5.875-10.21,10.445-14.4c4.58-4.199,10.296-7.558,16.988-9.985
			c8.695-3.154,16.466-4.61,23.095-4.337c6.622,0.277,12.396,1.546,17.161,3.773c4.746,2.222,8.645,5.101,11.588,8.556
			c2.968,3.49,5.108,7.011,6.361,10.466C211.299,88.741,212.293,93.849,212.144,98.101z"/>
		<path fill="#255A8C" d="M525.6,98.887c1.412,2.314,3.877,3.697,6.592,3.697c1.416,0,2.804-0.391,4.018-1.131l12.846-7.846
			c1.76-1.074,2.995-2.769,3.479-4.772c0.483-2.003,0.159-4.076-0.915-5.835l-7.846-12.847c-1.412-2.314-3.877-3.695-6.592-3.695
			c-1.414,0-2.803,0.391-4.017,1.13l-12.845,7.845c-1.76,1.074-2.996,2.769-3.48,4.772s-0.16,4.076,0.914,5.835L525.6,98.887z
			 M519.756,80.911c0.296-1.225,1.053-2.26,2.128-2.917l12.845-7.845c0.741-0.453,1.59-0.691,2.453-0.691
			c1.66,0,3.168,0.844,4.031,2.259l7.846,12.847c0.655,1.075,0.854,2.342,0.559,3.567c-0.297,1.225-1.051,2.26-2.126,2.917
			l-12.847,7.845c-0.74,0.453-1.59,0.692-2.453,0.692c-1.66,0-3.168-0.845-4.031-2.26l-7.846-12.846
			C519.658,83.402,519.46,82.135,519.756,80.911z"/>
		<path fill="#255A8C" d="M579.02,6.976c0.145,0.33,0.308,0.704,0.539,1.087l8.479,13.884c0.238,0.389,0.501,0.707,0.73,0.987
			c1.604,1.948,3.904,3.066,6.31,3.066c0.798,0,1.58-0.126,2.327-0.375l0.156-0.062c0.267-0.123,0.531-0.246,0.801-0.364
			c1.428-0.632,2.746-1.131,4.027-1.526c2.914-0.895,5.732-1.248,8.401-1.055c2.626,0.191,5.146,0.981,7.486,2.349
			c2.329,1.362,4.392,3.497,6.131,6.347c2.562,4.194,3.431,8.189,2.584,11.875c-0.845,3.673-3.74,7.042-8.65,10.042
			c-2.763,1.827-5.419,2.778-7.896,2.827l-0.472,0.005c-2.453,0-5.004-0.402-7.573-1.194c-2.869-0.89-5.859-1.953-8.888-3.158
			c-3.178-1.266-6.656-2.234-10.345-2.878c-2.366-0.413-4.997-0.586-7.817-0.516c-1.639,0.043-3.026,0.133-4.371,0.284
			c-4.414,0.501-9.314,2.136-14.566,4.859l-3.072,1.873l-0.103,0.069c-2.712,1.981-3.83,5.445-2.782,8.623
			c0.204,0.612,0.444,1.139,0.73,1.605l7.845,12.85c0.296,0.482,0.655,0.935,1.097,1.382c1.818,1.847,4.598,2.661,7.121,2.11
			c0.904-0.195,1.688-0.499,2.391-0.93l2.873-1.754c2.803-0.978,5.467-1.335,7.928-1.06c3.215,0.359,6.384,1.125,9.418,2.278
			c3.098,1.178,6.351,2.525,9.667,4.001c3.436,1.534,7.166,2.613,11.085,3.21c1.737,0.266,3.562,0.401,5.424,0.401
			c2.344,0,4.819-0.214,7.357-0.637c4.573-0.76,9.742-2.885,15.359-6.314c3.441-2.1,6.735-5.137,9.788-9.025
			c3.068-3.91,5.302-8.689,6.637-14.204c1.328-5.502,1.438-11.81,0.331-18.747c-1.111-6.941-4.224-14.633-9.247-22.862
			c-3.915-6.412-8.611-11.635-13.961-15.525c-0.383-0.278-0.772-0.536-1.161-0.801H625.4c1.753,0.95,3.469,2.019,5.133,3.228
			c5.025,3.657,9.456,8.59,13.164,14.663c4.818,7.894,7.795,15.219,8.845,21.772c1.046,6.543,0.95,12.454-0.284,17.568
			c-1.232,5.094-3.279,9.487-6.08,13.057c-2.831,3.605-5.855,6.403-8.991,8.317c-5.288,3.229-10.097,5.219-14.29,5.916
			c-2.375,0.395-4.686,0.596-6.864,0.596c-1.71,0-3.382-0.124-4.973-0.367c-3.653-0.556-7.124-1.56-10.314-2.984
			c-3.369-1.499-6.673-2.867-9.822-4.065c-3.271-1.242-6.687-2.069-10.151-2.456c-0.649-0.072-1.315-0.109-1.98-0.109
			c-2.365,0-4.865,0.462-7.43,1.375l-3.286,1.97c-0.412,0.251-0.89,0.434-1.464,0.558c-1.547,0.34-3.238-0.159-4.348-1.285
			c-0.281-0.284-0.502-0.56-0.674-0.841l-7.847-12.852c-0.169-0.275-0.31-0.588-0.439-0.981c-0.633-1.915,0.033-4.006,1.657-5.223
			l2.879-1.759c4.907-2.54,9.441-4.059,13.475-4.517c1.256-0.141,2.562-0.225,4.11-0.266c2.603-0.064,5.056,0.094,7.228,0.472
			c3.483,0.608,6.765,1.52,9.75,2.71c3.102,1.235,6.166,2.323,9.111,3.237c3.044,0.938,6.095,1.392,8.991,1.322
			c3.055-0.06,6.248-1.178,9.445-3.294c5.58-3.407,8.933-7.411,9.966-11.9c1.028-4.477,0.037-9.224-2.947-14.11
			c-2-3.278-4.415-5.759-7.178-7.375c-2.74-1.601-5.695-2.526-8.782-2.75c-3.037-0.221-6.229,0.175-9.501,1.18
			c-1.396,0.431-2.824,0.971-4.358,1.65c-0.255,0.112-0.511,0.229-0.767,0.347c-1.8,0.565-3.974-0.167-5.299-1.776
			c-0.186-0.225-0.359-0.438-0.488-0.646l-8.474-13.877c-0.125-0.207-0.233-0.458-0.354-0.734c-0.703-1.631-0.58-3.48,0.315-4.842
			c0.202-0.196,0.75-0.587,1.265-0.927h-4.186C578.104,2.094,578.031,4.679,579.02,6.976z"/>
		<path fill="#255A8C" d="M6.207,230.649c1.349-1.559,2.01-3.549,1.862-5.605L6.984,210.03c-0.272-3.778-3.267-6.778-6.984-7.121
			v3.027c2.134,0.329,3.833,2.096,3.992,4.309l1.084,15.014c0.091,1.257-0.313,2.474-1.138,3.427s-1.97,1.527-3.227,1.618L0,230.355
			v3.008l0.927-0.067C2.982,233.148,4.857,232.208,6.207,230.649z"/>
		<path fill="#255A8C" d="M111.594,250.232c3.702-4.281,6.691-9.835,8.887-16.51c2.192-6.678,2.953-14.94,2.26-24.557
			c-0.541-7.492-2.321-14.287-5.292-20.197c-2.976-5.912-6.938-10.938-11.781-14.939c-2.597-2.141-5.556-4.055-8.796-5.691
			c-2.702-1.362-5.326-2.428-8.022-3.258c-4.154-1.28-8.606-2.064-13.242-2.332c-0.064-0.003-0.138-0.005-0.22-0.005
			c-0.473,0-3.116,0.176-3.994,0.649c-2.348,1.276-3.929,3.813-4.126,6.646c-0.023,0.358-0.05,0.765-0.019,1.212l1.171,16.226
			c0.034,0.456,0.125,0.875,0.197,1.213c0.715,3.308,3.304,5.86,6.442,6.35l0.168,0.017c0.292,0.012,0.583,0.025,0.876,0.044
			c1.562,0.093,2.962,0.253,4.28,0.489c2.999,0.54,5.674,1.52,7.952,2.913c2.248,1.374,4.124,3.231,5.576,5.519
			c1.446,2.278,2.301,5.121,2.541,8.452c0.354,4.901-0.705,8.851-3.146,11.738c-2.435,2.877-6.552,4.544-12.292,4.959
			c-3.287,0.358-6.087-0.014-8.314-1.108c-2.336-1.144-4.56-2.741-6.605-4.744c-2.147-2.11-4.318-4.425-6.452-6.881
			c-2.243-2.581-4.892-5.036-7.874-7.298c-1.91-1.448-4.167-2.808-6.711-4.042c-1.463-0.707-2.738-1.264-4.016-1.752
			c-4.117-1.564-9.169-2.357-15.016-2.357l-3.747,0.256l-0.123,0.014c-3.318,0.518-5.899,3.084-6.424,6.388
			c-0.1,0.638-0.128,1.216-0.086,1.762l1.082,15.017c0.042,0.563,0.154,1.13,0.342,1.73c0.787,2.531,2.792,4.452,5.36,5.138
			c0.891,0.242,1.708,0.332,2.551,0.27l3.357-0.243c2.936,0.415,5.469,1.32,7.532,2.692c2.692,1.791,5.157,3.924,7.326,6.341
			c2.209,2.463,4.483,5.15,6.758,7.987c2.352,2.938,5.172,5.608,8.38,7.934c3.215,2.335,7.074,4.235,11.467,5.648
			c3.312,1.066,7.282,1.607,11.799,1.607c1.507,0,3.105-0.06,4.748-0.179c4.024-0.29,8.342-1.479,12.836-3.535
			C103.707,257.745,107.881,254.521,111.594,250.232z M86.133,260.358c-6.175,0.444-11.367,0.01-15.412-1.292
			c-4.091-1.316-7.666-3.072-10.625-5.221c-2.992-2.168-5.616-4.651-7.801-7.381c-2.31-2.88-4.62-5.61-6.867-8.114
			c-2.338-2.605-4.995-4.905-7.897-6.836c-2.48-1.649-5.489-2.722-8.944-3.188l-0.154-0.021l-3.669,0.265
			c-0.503,0.037-0.99-0.021-1.556-0.175c-1.571-0.42-2.795-1.591-3.275-3.134c-0.12-0.382-0.189-0.729-0.214-1.057l-1.083-15.02
			c-0.024-0.323-0.006-0.665,0.058-1.073c0.316-1.993,1.867-3.546,3.867-3.883l3.365-0.243h0.099c5.481,0,10.175,0.727,13.947,2.161
			c1.193,0.456,2.394,0.98,3.776,1.648c2.365,1.147,4.453,2.403,6.206,3.732c2.818,2.138,5.315,4.451,7.423,6.876
			c2.186,2.515,4.411,4.888,6.615,7.055c2.277,2.229,4.762,4.012,7.385,5.296c2.09,1.027,4.541,1.547,7.285,1.547
			c0.855,0,1.755-0.051,2.621-0.146c6.521-0.471,11.335-2.492,14.312-6.009c2.966-3.507,4.26-8.181,3.848-13.892
			c-0.276-3.831-1.285-7.142-3-9.844c-1.701-2.678-3.902-4.855-6.544-6.471c-2.596-1.587-5.619-2.7-8.986-3.306
			c-1.436-0.257-2.951-0.432-4.628-0.531c-0.279-0.018-0.56-0.031-0.841-0.042c-1.887-0.331-3.446-1.931-3.895-4.007
			c-0.059-0.271-0.12-0.554-0.138-0.799l-1.17-16.217c-0.017-0.241,0.001-0.515,0.021-0.815c0.123-1.772,1.08-3.36,2.499-4.159
			c0.411-0.122,1.926-0.32,2.677-0.32c0.001,0,0.002,0,0.004,0c4.387,0.253,8.601,0.995,12.524,2.204
			c2.534,0.78,5.005,1.784,7.555,3.069c3.042,1.536,5.813,3.328,8.238,5.326c4.519,3.734,8.224,8.436,11.011,13.973
			c2.792,5.555,4.467,11.969,4.979,19.065c0.665,9.226-0.048,17.1-2.118,23.405c-2.071,6.295-4.866,11.505-8.306,15.484
			c-3.429,3.961-7.26,6.928-11.388,8.818C93.77,258.994,89.798,260.094,86.133,260.358z"/>
		<path fill="#255A8C" d="M523.761,577.306c0.386-5.646-0.563-11.882-2.823-18.536c-2.263-6.655-6.623-13.716-12.957-20.98
			c-4.937-5.662-10.443-10.022-16.371-12.961c-5.928-2.935-12.115-4.567-18.396-4.854c-3.399-0.154-6.876,0.101-10.45,0.74
			c-2.98,0.537-5.72,1.264-8.369,2.22c-4.09,1.477-8.119,3.525-11.981,6.098c-0.552,0.369-2.57,2.154-2.981,3.048
			c-1.109,2.431-0.848,5.408,0.73,7.841c0.188,0.285,0.4,0.608,0.68,0.931l10.692,12.266c0.308,0.35,0.643,0.638,0.886,0.848
			c1.544,1.335,3.479,2.07,5.443,2.07c1.238,0,2.455-0.301,3.521-0.869l0.143-0.087c0.242-0.166,0.484-0.331,0.729-0.493
			c1.304-0.864,2.519-1.578,3.713-2.181c2.722-1.372,5.449-2.197,8.105-2.453c2.625-0.253,5.237,0.103,7.774,1.058
			c2.524,0.952,4.918,2.711,7.109,5.229c3.23,3.702,4.759,7.495,4.544,11.271c-0.217,3.765-2.505,7.57-6.842,11.354
			c-2.415,2.265-4.874,3.647-7.312,4.112c-2.553,0.489-5.293,0.551-8.129,0.18c-2.982-0.396-6.109-0.94-9.294-1.619
			c-3.342-0.714-6.935-1.084-10.679-1.1h-0.116c-2.364,0-4.946,0.271-7.677,0.806c-1.592,0.312-2.944,0.636-4.264,1.015
			c-4.269,1.235-8.824,3.671-13.541,7.238l-2.715,2.361l-0.091,0.086c-2.106,2.169-2.723,5.303-1.683,8.062h3.342
			c-0.104-0.152-0.204-0.319-0.303-0.505c-0.944-1.782-0.641-3.956,0.756-5.427l2.543-2.219c4.409-3.327,8.622-5.588,12.521-6.718
			c1.231-0.354,2.506-0.656,4.011-0.953c2.538-0.496,4.927-0.748,7.099-0.748h0.104c3.537,0.016,6.925,0.361,10.064,1.032
			c3.262,0.696,6.467,1.254,9.528,1.66c3.159,0.412,6.221,0.344,9.084-0.207c3.003-0.572,5.963-2.211,8.759-4.835
			c4.928-4.296,7.561-8.806,7.825-13.406c0.261-4.586-1.515-9.1-5.277-13.413c-2.522-2.895-5.319-4.935-8.313-6.062
			c-2.967-1.118-6.039-1.536-9.119-1.237c-3.029,0.292-6.113,1.221-9.169,2.761c-1.304,0.657-2.618,1.43-4.019,2.358
			c-0.234,0.154-0.466,0.312-0.697,0.47c-1.683,0.858-3.944,0.505-5.523-0.859c-0.239-0.206-0.436-0.38-0.589-0.555l-10.685-12.256
			c-0.17-0.194-0.304-0.405-0.474-0.664c-0.967-1.491-1.157-3.336-0.505-4.825c0.3-0.409,1.584-1.622,1.95-1.866
			c3.657-2.437,7.471-4.377,11.334-5.771c2.489-0.898,5.069-1.582,7.882-2.089c3.355-0.603,6.621-0.839,9.785-0.697
			c5.859,0.27,11.646,1.799,17.199,4.547c5.568,2.763,10.765,6.881,15.439,12.243c6.077,6.971,10.241,13.691,12.379,19.976
			c2.131,6.276,3.028,12.119,2.672,17.367c-0.358,5.227-1.638,9.9-3.8,13.894c-1.981,3.652-4.233,6.673-6.702,9.006h4.149
			c1.882-2.155,3.622-4.686,5.19-7.576C521.977,588.05,523.373,582.964,523.761,577.306z"/>
		<path fill="#255A8C" d="M261.129,564.883l-9.722-5.296c-0.889-0.484-1.892-0.74-2.9-0.74c-2.228,0-4.273,1.214-5.337,3.168
			l-5.297,9.724c-1.602,2.939-0.512,6.636,2.428,8.237l9.723,5.298c0.89,0.483,1.892,0.739,2.9,0.739
			c2.228,0,4.273-1.214,5.339-3.168l5.296-9.724c0.776-1.425,0.951-3.066,0.492-4.622S262.554,565.658,261.129,564.883z
			 M260.924,571.688l-5.295,9.723c-0.54,0.988-1.576,1.604-2.705,1.604c-0.516,0-1.008-0.126-1.465-0.375l-9.723-5.297
			c-1.488-0.811-2.039-2.681-1.229-4.168l5.297-9.723c0.539-0.989,1.574-1.604,2.703-1.604c0.515,0,1.008,0.126,1.465,0.375
			l9.723,5.296C261.183,568.328,261.734,570.198,260.924,571.688z"/>
		<path fill="#255A8C" d="M311.295,498.854c-3.294-4.051-8.145-7.838-14.418-11.256c-4.901-2.67-9.865-4.283-14.752-4.798
			c-4.895-0.512-9.636-0.052-14.09,1.371c-2.385,0.766-4.773,1.848-7.098,3.218c-1.935,1.142-3.655,2.354-5.259,3.708
			c-2.469,2.084-4.746,4.554-6.771,7.341c-0.212,0.295-1.288,2.188-1.351,3.065c-0.158,2.126,0.82,4.195,2.665,5.568
			c0.243,0.18,0.49,0.355,0.756,0.499l10.502,5.721c0.317,0.174,0.616,0.285,0.885,0.386c2.452,0.921,5.292,0.271,6.926-1.571
			l0.477-0.651c0.668-0.916,1.313-1.707,1.974-2.418c1.49-1.604,3.121-2.839,4.846-3.676c1.667-0.809,3.479-1.219,5.457-1.219h0.001
			c1.915,0.01,3.951,0.594,6.052,1.737c3.123,1.701,5.028,3.788,5.826,6.38c0.78,2.546,0.186,5.653-1.791,9.285
			c-1.053,2.111-2.345,3.641-3.841,4.545c-1.599,0.969-3.432,1.694-5.444,2.154c-2.14,0.485-4.425,0.908-6.792,1.253
			c-2.516,0.366-5.115,1.037-7.726,1.993c-1.696,0.62-3.409,1.465-5.242,2.582c-1.055,0.647-1.915,1.223-2.706,1.808
			c-2.667,1.973-5.22,4.853-7.588,8.559l-1.282,2.35l-0.054,0.109c-1.069,2.416-0.468,5.219,1.5,6.975
			c0.379,0.336,0.75,0.6,1.128,0.804l9.72,5.296c0.387,0.211,0.811,0.379,1.296,0.514c0.521,0.145,1.06,0.218,1.6,0.218
			c1.512,0,2.963-0.563,4.083-1.582c0.539-0.489,0.952-1.004,1.263-1.575l1.164-2.137c1.376-1.592,2.887-2.753,4.49-3.455
			c2.149-0.942,4.417-1.61,6.74-1.987c2.381-0.385,4.942-0.723,7.606-1.005c2.79-0.291,5.598-0.983,8.345-2.06
			c2.758-1.075,5.504-2.729,8.162-4.915c2.674-2.201,5.216-5.495,7.556-9.789c1.441-2.646,2.437-5.838,2.958-9.484
			c0.522-3.679,0.182-7.602-1.012-11.657C316.861,507.012,314.587,502.906,311.295,498.854z M316.097,522.288
			c-0.471,3.292-1.354,6.142-2.624,8.473c-2.155,3.956-4.452,6.953-6.828,8.909c-2.412,1.982-4.884,3.477-7.348,4.438
			c-2.498,0.977-5.043,1.604-7.567,1.868c-2.721,0.288-5.336,0.635-7.772,1.027c-2.573,0.417-5.084,1.157-7.464,2.2
			c-2.062,0.903-3.971,2.375-5.671,4.375l-1.414,2.53c-0.148,0.271-0.358,0.527-0.646,0.789c-0.77,0.7-1.874,0.965-2.867,0.693
			c-0.263-0.072-0.472-0.153-0.658-0.256l-9.728-5.3c-0.178-0.096-0.364-0.23-0.564-0.408c-0.975-0.87-1.282-2.258-0.771-3.468
			l1.17-2.151c2.162-3.375,4.455-5.972,6.815-7.718c0.721-0.532,1.513-1.061,2.489-1.661c1.636-0.997,3.22-1.778,4.708-2.324
			c2.417-0.885,4.814-1.504,7.126-1.841c2.444-0.355,4.808-0.792,7.026-1.297c2.327-0.532,4.458-1.378,6.331-2.513
			c1.989-1.202,3.662-3.146,4.947-5.725c2.353-4.319,3.025-8.206,1.999-11.554c-1.025-3.331-3.467-6.068-7.258-8.134
			c-2.542-1.384-5.056-2.092-7.561-2.104c-2.361,0-4.613,0.512-6.692,1.52c-2.061,0.999-3.99,2.456-5.735,4.333
			c-0.742,0.8-1.462,1.68-2.202,2.695l-0.342,0.479c-0.833,0.891-2.283,1.188-3.59,0.698c-0.164-0.062-0.331-0.118-0.492-0.207
			l-10.513-5.728c-0.146-0.077-0.273-0.179-0.438-0.301c-0.926-0.689-1.465-1.759-1.423-2.812c0.124-0.369,0.626-1.385,0.794-1.622
			c1.88-2.59,3.992-4.88,6.276-6.809c1.474-1.245,3.06-2.361,4.848-3.417c2.133-1.257,4.316-2.248,6.489-2.943
			c4.057-1.297,8.38-1.718,12.862-1.244c4.493,0.472,9.079,1.969,13.63,4.448c5.929,3.229,10.479,6.767,13.525,10.514
			c3.041,3.742,5.13,7.496,6.21,11.156C316.249,515.545,316.559,519.039,316.097,522.288z"/>
		<path fill="#255A8C" d="M239.914,369.009l7.5,4.087c0.736,0.4,1.566,0.612,2.401,0.612c1.843,0,3.536-1.005,4.419-2.623l4.085-7.5
			c0.642-1.179,0.787-2.538,0.407-3.826s-1.239-2.352-2.417-2.993l-7.5-4.086c-0.736-0.399-1.566-0.611-2.4-0.611
			c-1.844,0-3.537,1.005-4.418,2.621l-4.086,7.5C236.579,364.624,237.481,367.684,239.914,369.009z M240.539,363.624l4.086-7.499
			c0.355-0.652,1.039-1.059,1.783-1.059c0.34,0,0.665,0.084,0.965,0.248l7.5,4.086c0.476,0.259,0.822,0.688,0.975,1.207
			c0.153,0.52,0.095,1.066-0.164,1.541l-4.084,7.5c-0.519,0.951-1.789,1.334-2.751,0.812l-7.5-4.086
			C240.368,365.84,240.005,364.605,240.539,363.624z"/>
		<path fill="#255A8C" d="M247.507,312.738c0.206,0.152,0.415,0.301,0.641,0.423l8.102,4.413c0.238,0.13,0.484,0.228,0.725,0.316
			c2.023,0.758,4.367,0.219,5.72-1.305l0.389-0.529c0.507-0.697,0.997-1.297,1.496-1.834c1.12-1.205,2.343-2.134,3.637-2.76
			c1.238-0.602,2.586-0.906,4.056-0.906h0.001c1.422,0.008,2.938,0.444,4.507,1.299c2.326,1.268,3.742,2.812,4.329,4.722
			c0.574,1.872,0.125,4.18-1.36,6.907c-0.783,1.57-1.736,2.701-2.833,3.365c-1.204,0.729-2.583,1.274-4.097,1.621
			c-1.637,0.371-3.391,0.694-5.211,0.961c-1.964,0.285-3.993,0.809-6.029,1.555c-1.329,0.486-2.67,1.147-4.105,2.022
			c-0.842,0.519-1.493,0.952-2.112,1.41c-2.091,1.548-4.088,3.8-5.938,6.692l-1.001,1.832l-0.054,0.109
			c-0.885,2-0.387,4.318,1.243,5.773c0.311,0.275,0.617,0.494,0.934,0.666l7.5,4.086c0.319,0.174,0.668,0.312,1.071,0.425
			c0.432,0.119,0.877,0.179,1.325,0.179c1.252,0,2.454-0.465,3.383-1.312c0.443-0.404,0.784-0.83,1.042-1.304l0.879-1.614
			c1.021-1.175,2.136-2.03,3.318-2.548c1.633-0.717,3.354-1.223,5.116-1.508c1.812-0.293,3.78-0.555,5.848-0.772
			c2.185-0.229,4.382-0.771,6.525-1.61c2.163-0.844,4.312-2.137,6.389-3.846c2.098-1.727,4.087-4.301,5.912-7.652
			c1.131-2.076,1.912-4.576,2.32-7.431c0.41-2.886,0.144-5.959-0.791-9.138c-0.933-3.161-2.708-6.368-5.277-9.529
			c-2.57-3.16-6.346-6.11-11.223-8.767c-3.821-2.081-7.692-3.34-11.507-3.741c-3.823-0.4-7.528-0.041-11.009,1.072
			c-1.863,0.597-3.729,1.442-5.543,2.513c-1.506,0.887-2.849,1.834-4.104,2.894c-1.924,1.623-3.699,3.548-5.28,5.722
			c-0.146,0.203-1.05,1.746-1.106,2.541C245.201,309.912,246.007,311.62,247.507,312.738z M248.867,307.374
			c1.436-1.976,3.046-3.722,4.786-5.188c1.125-0.951,2.333-1.803,3.692-2.604c1.624-0.958,3.285-1.711,4.935-2.24
			c3.085-0.986,6.37-1.303,9.781-0.946c3.42,0.359,6.914,1.5,10.385,3.392c4.532,2.469,8.008,5.169,10.331,8.024
			c2.316,2.852,3.907,5.707,4.728,8.485c0.812,2.763,1.048,5.408,0.699,7.864c-0.357,2.497-1.025,4.656-1.985,6.419
			c-1.64,3.013-3.384,5.291-5.184,6.771c-1.831,1.508-3.706,2.641-5.575,3.369c-1.895,0.741-3.828,1.221-5.747,1.42
			c-2.125,0.226-4.148,0.492-6.013,0.795c-2.011,0.326-3.977,0.904-5.841,1.722c-1.64,0.719-3.153,1.885-4.498,3.467l-1.129,2.008
			c-0.095,0.175-0.236,0.347-0.429,0.521c-0.507,0.464-1.245,0.639-1.886,0.459c-0.18-0.049-0.319-0.104-0.438-0.168l-7.501-4.086
			c-0.116-0.063-0.239-0.153-0.373-0.271c-0.639-0.57-0.842-1.477-0.514-2.271l0.888-1.633c1.643-2.562,3.381-4.531,5.166-5.853
			c0.547-0.403,1.133-0.794,1.895-1.265c1.243-0.756,2.444-1.351,3.571-1.764c1.842-0.675,3.668-1.146,5.429-1.402
			c1.899-0.277,3.73-0.615,5.445-1.006c1.83-0.418,3.507-1.084,4.984-1.979c1.59-0.961,2.924-2.506,3.94-4.544
			c1.861-3.416,2.389-6.504,1.568-9.179c-0.818-2.658-2.757-4.836-5.762-6.474c-2.009-1.094-4.002-1.653-5.989-1.663
			c-1.88,0-3.67,0.405-5.319,1.206c-1.628,0.788-3.151,1.938-4.525,3.416c-0.581,0.626-1.145,1.315-1.726,2.113l-0.25,0.351
			c-0.551,0.575-1.512,0.762-2.383,0.437c-0.112-0.042-0.226-0.079-0.335-0.14l-8.109-4.418c-0.104-0.056-0.192-0.127-0.298-0.205
			c-0.609-0.453-0.97-1.145-0.961-1.83C248.427,308.198,248.754,307.541,248.867,307.374z"/>
		<path fill="#255A8C" d="M29.738,61.651c0.958,1.168,2.375,1.838,3.888,1.838c1.159,0,2.291-0.406,3.187-1.142l6.604-5.417
			c2.142-1.759,2.454-4.933,0.696-7.073l-5.417-6.604c-0.959-1.168-2.377-1.838-3.889-1.838c-1.158,0-2.29,0.405-3.187,1.141
			l-6.604,5.417c-2.141,1.759-2.454,4.933-0.697,7.076L29.738,61.651z M26.92,50.292l6.604-5.417c0.367-0.301,0.811-0.46,1.284-0.46
			c0.611,0,1.183,0.271,1.57,0.741l5.417,6.604c0.708,0.863,0.583,2.142-0.28,2.851l-6.604,5.417
			c-0.838,0.691-2.167,0.556-2.852-0.281l-5.417-6.602C25.931,52.281,26.057,51,26.92,50.292z"/>
		<path fill="#255A8C" d="M38.318,65.985c-1.05,1.37-1.319,3.16-0.717,4.792c0.209,0.563,0.476,1.038,0.815,1.452l1.167,1.422
			c0.705,1.387,1.08,2.743,1.116,4.032c0.05,1.783-0.126,3.569-0.524,5.309c-0.405,1.78-0.903,3.702-1.479,5.709
			c-0.609,2.112-0.931,4.351-0.957,6.652c-0.03,2.323,0.362,4.801,1.166,7.366c0.812,2.59,2.451,5.4,4.873,8.354
			c1.501,1.829,3.525,3.491,6.016,4.939c2.52,1.463,5.468,2.37,8.765,2.697c0.697,0.068,1.418,0.103,2.143,0.103
			c2.688,0,5.605-0.477,8.672-1.416c3.892-1.195,8.043-3.587,12.338-7.111c3.363-2.759,5.983-5.875,7.788-9.261
			c1.808-3.394,2.864-6.962,3.14-10.606c0.146-1.95,0.063-3.997-0.248-6.083c-0.258-1.733-0.632-3.333-1.142-4.889
			c-0.78-2.389-1.897-4.757-3.323-7.044c-0.139-0.221-1.216-1.625-1.938-1.977c-1.538-0.76-3.489-0.661-5.062,0.293
			c-0.221,0.135-0.44,0.274-0.636,0.438l-7.134,5.853c-0.208,0.171-0.39,0.362-0.564,0.552c-1.48,1.61-1.857,3.938-0.938,5.792
			L72,83.914c0.453,0.727,0.825,1.405,1.137,2.074c0.696,1.489,1.097,2.971,1.192,4.406c0.093,1.388-0.137,2.768-0.684,4.101
			c-0.541,1.315-1.515,2.556-2.896,3.689c-2.022,1.66-4.038,2.414-6.001,2.24c-1.95-0.17-3.92-1.454-5.893-3.855
			c-1.161-1.315-1.852-2.623-2.054-3.89c-0.225-1.389-0.212-2.872,0.036-4.406c0.27-1.658,0.628-3.405,1.065-5.191
			c0.473-1.929,0.75-4.005,0.822-6.172c0.046-1.399-0.065-2.933-0.333-4.563c-0.164-0.976-0.323-1.743-0.514-2.487
			c-0.65-2.519-1.987-5.215-3.973-8.015l-1.324-1.616l-0.081-0.091c-1.472-1.521-3.909-1.954-5.82-1.015
			c-0.373,0.186-0.689,0.387-0.966,0.615l-6.602,5.416C38.831,65.385,38.57,65.657,38.318,65.985z M40.698,67.812
			c0.11-0.143,0.214-0.254,0.319-0.341l6.604-5.418c0.103-0.085,0.229-0.163,0.391-0.244c0.276-0.136,0.572-0.205,0.881-0.205
			c0.534,0,1.035,0.206,1.417,0.58l1.181,1.437c1.757,2.484,2.929,4.835,3.484,6.985c0.169,0.658,0.311,1.348,0.46,2.231
			c0.235,1.432,0.334,2.768,0.294,3.971c-0.066,1.96-0.314,3.83-0.738,5.558c-0.456,1.863-0.83,3.688-1.113,5.424
			c-0.3,1.854-0.312,3.659-0.037,5.362c0.293,1.834,1.224,3.651,2.732,5.358c2.469,3.008,5.132,4.656,7.917,4.899
			c2.768,0.234,5.522-0.742,8.164-2.91c1.768-1.451,3.036-3.089,3.767-4.869c0.723-1.761,1.026-3.592,0.902-5.44
			c-0.12-1.807-0.614-3.649-1.468-5.476c-0.363-0.778-0.792-1.56-1.309-2.391l-0.231-0.366c-0.334-0.741-0.143-1.684,0.49-2.372
			c0.081-0.089,0.159-0.181,0.255-0.26l7.142-5.859c0.09-0.074,0.19-0.129,0.299-0.196c0.64-0.389,1.419-0.471,2.058-0.203
			c0.227,0.208,0.713,0.759,0.825,0.925c1.294,2.076,2.308,4.224,3.014,6.384c0.457,1.396,0.792,2.834,1.026,4.399
			c0.278,1.865,0.353,3.688,0.223,5.416c-0.244,3.226-1.185,6.396-2.796,9.42c-1.617,3.035-3.987,5.845-7.042,8.352
			c-3.992,3.274-7.799,5.482-11.315,6.562c-3.511,1.076-6.761,1.478-9.641,1.196c-2.865-0.284-5.407-1.06-7.552-2.305
			c-2.18-1.268-3.931-2.698-5.204-4.25c-2.177-2.654-3.634-5.125-4.33-7.347c-0.708-2.262-1.055-4.425-1.028-6.433
			c0.022-2.034,0.305-4.004,0.84-5.859c0.591-2.062,1.103-4.039,1.521-5.871c0.454-1.985,0.656-4.024,0.599-6.062
			c-0.05-1.79-0.563-3.63-1.525-5.471l-1.438-1.801c-0.125-0.152-0.23-0.347-0.321-0.591C40.172,69.078,40.279,68.358,40.698,67.812
			z"/>
		<path fill="#255A8C" d="M585.344,513.024l-14.714-3.173c-0.538-0.114-1.087-0.174-1.633-0.174c-3.606,0-6.776,2.562-7.538,6.091
			l-3.172,14.717c-0.895,4.158,1.76,8.271,5.918,9.171l14.715,3.171c0.538,0.115,1.087,0.174,1.633,0.174
			c3.607,0,6.777-2.562,7.538-6.093l3.171-14.716c0.435-2.016,0.058-4.077-1.061-5.811
			C589.083,514.65,587.357,513.458,585.344,513.024z M588.328,521.561l-3.171,14.717c-0.464,2.157-2.401,3.725-4.604,3.725
			c-0.334,0-0.67-0.036-1-0.107l-14.715-3.17c-2.542-0.549-4.165-3.063-3.617-5.605l3.172-14.716
			c0.465-2.157,2.401-3.724,4.604-3.724c0.334,0,0.67,0.036,1,0.107l14.715,3.172c1.229,0.265,2.285,0.993,2.968,2.052
			C588.363,519.068,588.594,520.33,588.328,521.561z"/>
		<path fill="#255A8C" d="M696.081,515.315c-1.888-2.778-4.19-5.446-6.846-7.932c-2.208-2.062-4.43-3.821-6.787-5.376
			c-3.631-2.396-7.687-4.397-12.058-5.953c-0.724-0.255-2.747-0.615-3.678-0.615c-0.21,0-0.384,0.017-0.548,0.052
			c-2.613,0.565-4.842,2.559-5.822,5.216c-0.124,0.34-0.266,0.726-0.359,1.164l-3.423,15.891c-0.095,0.427-0.125,0.821-0.154,1.23
			c-0.242,3.378,1.526,6.554,4.4,7.901l0.154,0.062c0.279,0.095,0.557,0.188,0.833,0.29c1.474,0.525,2.772,1.071,3.972,1.67
			c2.725,1.357,5.017,3.049,6.812,5.025c1.771,1.948,3.053,4.258,3.806,6.861c0.749,2.588,0.772,5.558,0.069,8.822
			c-1.037,4.804-3.161,8.299-6.312,10.388c-3.144,2.078-7.479,2.54-13.188,1.312c-3.259-0.58-5.84-1.724-7.671-3.396
			c-1.924-1.757-3.609-3.913-5.009-6.406c-1.471-2.626-2.903-5.458-4.264-8.415c-1.427-3.103-3.28-6.202-5.512-9.215
			c-1.43-1.927-3.215-3.863-5.31-5.762c-1.214-1.096-2.28-1.986-3.361-2.807c-3.541-2.68-8.219-4.872-13.903-6.521l-3.517-0.761
			l-0.121-0.021c-3.34-0.432-6.555,1.356-7.96,4.329c-0.271,0.578-0.46,1.122-0.578,1.666l-3.169,14.711
			c-0.118,0.544-0.171,1.119-0.16,1.765c0.045,2.647,1.431,5.056,3.707,6.438c0.793,0.482,1.568,0.802,2.37,0.975l3.29,0.709
			c2.701,1.221,4.88,2.801,6.476,4.696c2.085,2.478,3.853,5.217,5.253,8.14c1.426,2.975,2.854,6.192,4.246,9.562
			c1.429,3.475,3.387,6.827,5.819,9.969c2.435,3.143,5.604,6.049,9.422,8.638c3.843,2.603,9.052,4.625,15.481,6.012
			c2.147,0.462,4.467,0.696,6.893,0.696h0.001c2.03,0,4.189-0.164,6.421-0.488c4.917-0.72,9.828-2.644,14.599-5.719
			c4.755-3.072,9.184-7.565,13.159-13.356c3.98-5.796,7.027-13.513,9.058-22.936c1.585-7.343,1.781-14.365,0.587-20.871
			C702.002,526.45,699.607,520.514,696.081,515.315z M699.68,553.198c-1.945,9.039-4.839,16.396-8.597,21.869
			c-3.751,5.462-7.896,9.679-12.313,12.533c-4.405,2.841-8.916,4.613-13.404,5.271c-2.087,0.304-4.102,0.457-5.987,0.457h-0.001
			c-2.214,0-4.319-0.212-6.259-0.63c-6.054-1.305-10.909-3.176-14.433-5.562c-3.555-2.411-6.493-5.1-8.733-7.992
			c-2.269-2.927-4.09-6.046-5.416-9.271c-1.414-3.423-2.865-6.692-4.315-9.717c-1.51-3.15-3.415-6.104-5.663-8.774
			c-1.918-2.278-4.506-4.153-7.69-5.568l-3.737-0.839c-0.47-0.101-0.942-0.298-1.444-0.604c-1.391-0.845-2.236-2.312-2.265-3.925
			c-0.007-0.414,0.022-0.756,0.093-1.078l3.169-14.712c0.069-0.318,0.188-0.654,0.36-1.022c0.768-1.624,2.431-2.673,4.237-2.673
			c0.186,0,0.374,0.011,0.562,0.033l3.298,0.709c5.31,1.544,9.643,3.567,12.878,6.016c1.01,0.767,2.015,1.604,3.16,2.641
			c1.947,1.764,3.601,3.556,4.911,5.322c2.107,2.847,3.855,5.768,5.195,8.683c1.393,3.028,2.862,5.931,4.372,8.628
			c1.558,2.775,3.441,5.184,5.603,7.155c2.257,2.062,5.342,3.453,9.116,4.124c6.397,1.377,11.584,0.785,15.423-1.755
			c3.829-2.536,6.382-6.66,7.59-12.258c0.81-3.757,0.77-7.219-0.12-10.288c-0.882-3.047-2.384-5.755-4.468-8.046
			c-2.048-2.253-4.637-4.168-7.693-5.692c-1.308-0.651-2.714-1.243-4.298-1.81c-0.263-0.095-0.526-0.186-0.794-0.276
			c-1.719-0.846-2.767-2.819-2.61-4.989c0.021-0.284,0.04-0.53,0.09-0.755l3.425-15.898c0.05-0.233,0.146-0.492,0.247-0.771
			c0.614-1.664,1.977-2.919,3.562-3.291c0.604,0.005,2.284,0.311,2.664,0.443c4.14,1.474,7.977,3.366,11.405,5.629
			c2.216,1.463,4.308,3.118,6.392,5.064c2.49,2.331,4.647,4.829,6.41,7.423c3.291,4.853,5.528,10.404,6.649,16.502
			C701.372,539.616,701.181,546.243,699.68,553.198z"/>
		<path fill="#255A8C" d="M670.712,346.951l-13.295-7.061c-1.111-0.591-2.36-0.902-3.611-0.902c-2.864,0-5.479,1.57-6.823,4.101
			l-7.061,13.295c-0.966,1.819-1.165,3.907-0.562,5.88c0.604,1.971,1.938,3.588,3.76,4.555l13.294,7.059
			c1.112,0.592,2.362,0.904,3.615,0.904c2.862,0,5.477-1.571,6.819-4.1l7.058-13.295c0.968-1.818,1.169-3.906,0.563-5.879
			C673.867,349.537,672.533,347.919,670.712,346.951z M671.257,355.979l-7.057,13.295c-0.821,1.545-2.42,2.506-4.171,2.506
			c-0.774,0-1.519-0.187-2.208-0.553l-13.295-7.06c-1.112-0.59-1.929-1.579-2.298-2.784s-0.247-2.48,0.344-3.594l7.059-13.294
			c0.822-1.546,2.421-2.507,4.175-2.507c0.773,0,1.517,0.186,2.205,0.552l13.294,7.06c1.112,0.592,1.93,1.582,2.299,2.787
			C671.972,353.591,671.849,354.866,671.257,355.979z"/>
		<path fill="#255A8C" d="M620.257,478.873L620.257,478.873c4.9,0,9.686-0.762,14.222-2.266c3.192-1.062,6.388-2.553,9.494-4.429
			c2.595-1.566,4.893-3.225,7.023-5.064c3.29-2.836,6.321-6.192,9.011-9.979c0.317-0.45,1.629-2.893,1.694-3.911
			c0.168-2.668-1.144-5.354-3.432-7.021c-0.292-0.211-0.623-0.451-1.021-0.666l-14.372-7.631c-0.4-0.21-0.787-0.352-1.129-0.476
			c-0.947-0.344-1.931-0.518-2.923-0.518c-2.303,0-4.444,0.948-5.879,2.601l-0.192,0.263c-0.137,0.196-0.272,0.395-0.414,0.593
			c-0.91,1.273-1.79,2.375-2.688,3.362c-2.05,2.253-4.301,3.998-6.692,5.188c-2.355,1.174-4.926,1.776-7.711,1.792
			c-2.678,0-5.517-0.787-8.438-2.34c-4.34-2.304-7.123-5.299-8.271-8.9c-1.146-3.592-0.369-7.966,2.327-13.049
			c1.448-2.979,3.251-5.152,5.356-6.455c2.211-1.371,4.744-2.406,7.528-3.074c2.94-0.699,6.056-1.309,9.257-1.811
			c3.378-0.527,6.866-1.467,10.368-2.792c2.243-0.851,4.595-2.039,6.991-3.538c1.38-0.866,2.527-1.65,3.615-2.473
			c3.545-2.678,6.93-6.582,10.061-11.6l1.689-3.178l0.053-0.111c1.324-3.084,0.521-6.636-1.997-8.837
			c-0.487-0.424-0.962-0.755-1.447-1.011l-13.298-7.062c-0.499-0.263-1.038-0.469-1.646-0.629c-2.522-0.668-5.285,0.031-7.198,1.812
			c-0.678,0.624-1.195,1.283-1.586,2.018l-1.578,2.973c-1.912,2.268-4.024,3.934-6.281,4.951c-2.954,1.33-6.071,2.285-9.266,2.836
			c-3.258,0.562-6.741,1.062-10.356,1.481c-3.74,0.431-7.5,1.401-11.174,2.886c-3.684,1.48-7.344,3.739-10.879,6.711
			c-3.553,2.985-6.917,7.446-10.002,13.26c-1.895,3.562-3.182,7.854-3.827,12.754c-0.648,4.93-0.136,10.179,1.524,15.603
			c1.659,5.41,4.776,10.896,9.267,16.304c4.491,5.403,11.086,10.438,19.603,14.962c6.633,3.521,13.335,5.625,19.921,6.249
			C617.138,478.798,618.717,478.873,620.257,478.873z M578.348,455.521c-4.234-5.102-7.164-10.236-8.705-15.266
			c-1.533-5.01-2.013-9.832-1.42-14.332c0.6-4.543,1.776-8.492,3.502-11.738c2.904-5.471,6.027-9.633,9.282-12.369
			c3.293-2.768,6.681-4.861,10.07-6.227c3.426-1.383,6.924-2.287,10.396-2.688c3.671-0.426,7.211-0.934,10.521-1.504
			c3.444-0.596,6.805-1.625,9.989-3.06c2.714-1.226,5.221-3.204,7.451-5.884l1.823-3.366c0.229-0.43,0.547-0.83,0.977-1.228
			c0.877-0.814,2.016-1.264,3.206-1.264c0.398,0,0.799,0.051,1.188,0.153c0.388,0.103,0.719,0.228,1.01,0.381l13.299,7.062
			c0.285,0.15,0.565,0.35,0.879,0.621c1.52,1.326,2.012,3.465,1.232,5.338l-1.581,2.982c-2.928,4.684-6.056,8.301-9.295,10.749
			c-1.016,0.767-2.098,1.505-3.399,2.323c-2.229,1.393-4.401,2.495-6.461,3.273c-3.309,1.252-6.596,2.139-9.771,2.635
			c-3.278,0.514-6.471,1.139-9.491,1.855c-3.098,0.744-5.928,1.902-8.41,3.442c-2.596,1.604-4.772,4.192-6.45,7.646
			c-3.065,5.774-3.91,10.929-2.513,15.318c1.396,4.375,4.666,7.955,9.724,10.639c3.357,1.785,6.67,2.69,9.934,2.69
			c3.175-0.019,6.189-0.728,8.958-2.106c2.727-1.355,5.275-3.326,7.574-5.854c0.979-1.077,1.933-2.269,2.91-3.638
			c0.148-0.208,0.296-0.421,0.441-0.632l0.04-0.059c1.263-1.4,3.494-1.885,5.464-1.173c0.275,0.1,0.536,0.193,0.751,0.308
			l14.358,7.624c0.216,0.115,0.438,0.278,0.682,0.453c1.437,1.045,2.271,2.699,2.195,4.328c-0.133,0.486-0.898,2.077-1.152,2.438
			c-2.547,3.585-5.414,6.762-8.521,9.44c-2.004,1.73-4.167,3.29-6.614,4.769c-2.917,1.763-5.908,3.158-8.889,4.149
			c-5.566,1.846-11.521,2.484-17.688,1.902c-6.189-0.587-12.514-2.576-18.797-5.913
			C588.879,465.411,582.586,460.624,578.348,455.521z"/>
		<g>
			<path fill="#255A8C" d="M787.872,431.203l-1.081-8.475c-0.347-2.711-2.835-4.703-5.623-4.351l-8.474,1.081
				c-1.332,0.171-2.519,0.85-3.339,1.912c-0.822,1.062-1.182,2.382-1.011,3.712l1.081,8.475c0.321,2.501,2.463,4.389,4.981,4.389
				c0.212,0,0.426-0.015,0.641-0.041l8.472-1.079C786.269,436.474,788.221,433.951,787.872,431.203z M783.141,433.85l-8.472,1.079
				c-1.127,0.149-2.127-0.659-2.267-1.751l-1.081-8.475c-0.068-0.536,0.075-1.067,0.406-1.496s0.811-0.702,1.347-0.771l8.473-1.08
				c0.088-0.013,0.175-0.018,0.261-0.018c1.016,0,1.878,0.762,2.008,1.771l1.081,8.472
				C785.036,432.69,784.248,433.708,783.141,433.85z"/>
		</g>
		<path fill="#255A8C" d="M764.748,425.544c-0.046-0.358-0.139-0.723-0.284-1.117c-0.603-1.617-1.976-2.796-3.677-3.152
			c-0.585-0.121-1.104-0.153-1.664-0.082l-1.824,0.233c-1.55-0.141-2.896-0.543-4.009-1.197c-1.538-0.904-2.957-2.004-4.219-3.266
			c-1.291-1.286-2.654-2.729-4.052-4.285c-1.466-1.639-3.19-3.101-5.127-4.347c-1.951-1.259-4.26-2.243-6.857-2.927
			c-2.629-0.689-5.872-0.793-9.666-0.309c-2.347,0.299-4.83,1.131-7.382,2.471c-2.576,1.355-4.912,3.371-6.941,5.992
			c-2.018,2.61-3.577,5.928-4.635,9.86c-1.058,3.932-1.235,8.719-0.532,14.229c0.551,4.314,1.798,8.189,3.707,11.518
			c1.915,3.336,4.377,6.127,7.317,8.297c1.57,1.157,3.35,2.174,5.284,3.022c1.604,0.699,3.156,1.231,4.748,1.629
			c2.443,0.608,5.042,0.922,7.727,0.929h0.008c0.262-0.001,2.025-0.168,2.703-0.592c1.501-0.922,2.414-2.574,2.442-4.487
			c0.002-0.243-0.001-0.484-0.032-0.727l-1.169-9.156c-0.034-0.269-0.1-0.521-0.168-0.771c-0.577-2.106-2.35-3.662-4.407-3.87
			l-0.083-0.01l-0.578,0.003c-0.836-0.002-1.63-0.049-2.356-0.138c-1.631-0.202-3.101-0.649-4.368-1.332
			c-1.226-0.658-2.271-1.586-3.11-2.759c-0.826-1.155-1.36-2.641-1.587-4.412c-0.335-2.626,0.087-4.679,1.292-6.274
			c1.179-1.561,3.312-2.548,6.396-2.941c1.729-0.285,3.205-0.177,4.388,0.326c1.295,0.547,2.545,1.345,3.713,2.371
			c1.264,1.111,2.553,2.344,3.831,3.659c1.385,1.429,2.996,2.767,4.792,3.979c1.16,0.781,2.519,1.502,4.045,2.143
			c0.624,0.26,1.459,0.594,2.379,0.886c2.479,0.786,5.458,1.085,8.9,0.894l2.071-0.262l0.121-0.021
			c2.14-0.454,3.728-2.217,3.951-4.391c0.041-0.411,0.039-0.786-0.007-1.146L764.748,425.544z M762.851,434.857
			c-0.088,0.852-0.702,1.548-1.538,1.748l-1.845,0.234c-3.035,0.169-5.65-0.087-7.77-0.76c-0.812-0.258-1.571-0.562-2.133-0.794
			c-1.34-0.562-2.523-1.189-3.521-1.861c-1.624-1.096-3.076-2.3-4.315-3.579c-1.334-1.373-2.682-2.659-4.004-3.824
			c-1.411-1.239-2.935-2.209-4.522-2.881c-1.708-0.726-3.841-0.887-5.991-0.531c-3.861,0.492-6.673,1.872-8.357,4.104
			c-1.677,2.221-2.307,5.067-1.873,8.462c0.291,2.271,1.005,4.214,2.123,5.778c1.108,1.549,2.498,2.779,4.131,3.655
			c1.596,0.857,3.419,1.419,5.42,1.665c0.848,0.104,1.763,0.159,2.723,0.161l0.429-0.002c0.807,0.112,1.505,0.775,1.75,1.675
			c0.032,0.116,0.069,0.233,0.085,0.355l1.17,9.157c0.014,0.108,0.009,0.217,0.008,0.363c-0.013,0.76-0.359,1.454-0.923,1.852
			c-0.296,0.081-1.017,0.2-1.234,0.208c-2.438-0.008-4.791-0.29-6.997-0.839c-1.427-0.356-2.824-0.836-4.271-1.468
			c-1.73-0.759-3.314-1.663-4.706-2.688c-2.604-1.921-4.789-4.402-6.496-7.376c-1.711-2.98-2.833-6.48-3.332-10.402
			c-0.654-5.121-0.502-9.521,0.452-13.071c0.953-3.548,2.338-6.509,4.109-8.804c1.766-2.278,3.771-4.02,5.965-5.172
			c2.234-1.174,4.376-1.896,6.365-2.15c1.44-0.186,2.798-0.277,4.035-0.277c1.685,0,3.195,0.172,4.49,0.514
			c2.292,0.602,4.309,1.457,5.995,2.545c1.711,1.102,3.229,2.388,4.518,3.826c1.455,1.622,2.818,3.063,4.165,4.406
			c1.439,1.439,3.061,2.694,4.817,3.729c1.542,0.906,3.374,1.45,5.443,1.613l0.154,0.014l2.134-0.273
			c0.216-0.029,0.42-0.011,0.673,0.042c0.687,0.145,1.238,0.616,1.479,1.259c0.064,0.179,0.104,0.322,0.12,0.455l1.08,8.472
			C762.869,434.53,762.868,434.679,762.851,434.857z"/>
		<path fill="#255A8C" d="M138.781,518.76l-11.074,0.024c-1.621,0.005-3.144,0.64-4.289,1.79c-1.145,1.148-1.772,2.676-1.768,4.296
			l0.024,11.073c0.01,3.342,2.735,6.06,6.076,6.06l11.086-0.024c3.346-0.012,6.064-2.741,6.058-6.088l-0.027-11.073
			C144.86,521.477,142.137,518.76,138.781,518.76z M138.829,538.979l-11.071,0.024l-0.006,1.5v-1.5
			c-1.691,0-3.071-1.376-3.076-3.065l-0.024-11.073c-0.002-0.819,0.315-1.592,0.894-2.173c0.579-0.582,1.35-0.904,2.169-0.906
			l11.083-0.024c1.689,0,3.067,1.375,3.071,3.064l0.027,11.073C141.898,537.59,140.522,538.973,138.829,538.979z"/>
		<path fill="#255A8C" d="M162.846,444.199c-2.995-2.976-6.962-5.481-11.792-7.452c-4.797-1.954-10.816-2.944-17.89-2.944h-0.163
			c-5.581,0.014-10.709,0.981-15.242,2.879c-4.542,1.902-8.479,4.585-11.7,7.974c-1.722,1.812-3.296,3.907-4.68,6.231
			c-1.147,1.93-2.073,3.818-2.83,5.778c-1.163,3.008-1.975,6.268-2.413,9.691c-0.045,0.359-0.08,2.536,0.288,3.339
			c0.884,1.938,2.736,3.283,4.973,3.598c0.298,0.041,0.598,0.078,0.939,0.078c0,0,0.001,0,0.002,0l11.965-0.026
			c0.351-0.001,0.658-0.043,0.956-0.089c2.625-0.376,4.764-2.267,5.32-4.704l0.106-0.803c0.144-1.117,0.33-2.121,0.569-3.068
			c0.536-2.12,1.372-3.986,2.484-5.552c1.083-1.523,2.496-2.766,4.2-3.688c1.685-0.912,3.752-1.379,6.193-1.386
			c3.532,0,6.19,0.915,8.125,2.798c1.907,1.856,2.879,4.867,2.891,9.006c0.091,2.356-0.308,4.317-1.186,5.828
			c-0.938,1.62-2.196,3.138-3.739,4.506c-1.643,1.454-3.445,2.923-5.354,4.362c-2.035,1.532-3.993,3.369-5.821,5.46
			c-1.173,1.347-2.301,2.952-3.355,4.783c-0.631,1.11-1.096,1.999-1.506,2.886c-1.39,3.017-2.246,6.768-2.543,11.15l-0.003,0.053
			l0.008,2.624l0.005,0.122c0.223,2.631,2.096,4.799,4.67,5.397c0.491,0.109,0.917,0.161,1.341,0.161l11.099-0.025
			c0.441,0,0.894-0.057,1.384-0.172c2.028-0.478,3.647-1.945,4.331-3.932c0.236-0.688,0.351-1.338,0.35-1.983l-0.006-2.435
			c0.443-2.059,1.209-3.804,2.276-5.188c1.437-1.864,3.104-3.539,4.96-4.98c1.882-1.469,3.964-2.994,6.188-4.536
			c2.31-1.599,4.439-3.557,6.328-5.815c1.904-2.271,3.519-5.04,4.798-8.23c1.288-3.218,1.936-7.328,1.924-12.219
			c-0.008-3.017-0.668-6.292-1.961-9.736C168.024,450.46,165.841,447.184,162.846,444.199z M166.587,474.778
			c-1.161,2.896-2.612,5.392-4.314,7.421c-1.716,2.056-3.646,3.83-5.735,5.274c-2.27,1.574-4.398,3.136-6.322,4.637
			c-2.054,1.596-3.902,3.45-5.493,5.516c-1.373,1.781-2.339,3.989-2.87,6.562l-0.031,0.152l0.007,2.744
			c0,0.308-0.061,0.637-0.187,1.005c-0.346,1.003-1.161,1.745-2.182,1.985c-0.266,0.062-0.487,0.092-0.699,0.092l-11.079,0.025
			l-0.016,1.5v-1.5c-0.197,0-0.415-0.028-0.673-0.086c-1.274-0.297-2.21-1.366-2.344-2.673l-0.008-2.448
			c0.276-3.995,1.04-7.374,2.27-10.043c0.373-0.807,0.801-1.626,1.386-2.653c0.954-1.655,1.967-3.104,3.011-4.3
			c1.691-1.936,3.496-3.629,5.367-5.038c1.973-1.488,3.836-3.006,5.538-4.515c1.785-1.583,3.247-3.349,4.345-5.244
			c1.167-2.009,1.702-4.516,1.59-7.396c-0.012-4.921-1.29-8.653-3.798-11.094c-2.488-2.42-5.926-3.647-10.275-3.647
			c-2.893,0.009-5.438,0.597-7.564,1.747c-2.111,1.146-3.866,2.689-5.215,4.59c-1.329,1.867-2.32,4.072-2.948,6.555
			c-0.269,1.064-0.477,2.185-0.636,3.422l-0.071,0.584c-0.307,1.203-1.425,2.138-2.816,2.337c-0.174,0.026-0.349,0.056-0.528,0.057
			l-11.989,0.026c-0.169,0-0.332-0.027-0.511-0.052c-1.144-0.16-2.129-0.839-2.6-1.783c-0.068-0.383-0.115-1.514-0.083-1.803
			c0.407-3.182,1.159-6.204,2.235-8.986c0.696-1.802,1.55-3.544,2.609-5.326c1.27-2.132,2.708-4.05,4.276-5.7
			c2.933-3.084,6.527-5.529,10.684-7.271c4.167-1.744,8.907-2.635,14.09-2.646h0.157c6.684,0,12.322,0.916,16.758,2.724
			c4.46,1.818,8.097,4.107,10.808,6.801c2.688,2.678,4.638,5.595,5.795,8.668c1.167,3.107,1.762,6.032,1.77,8.688
			C168.306,468.188,167.731,471.92,166.587,474.778z"/>
		<path fill="#255A8C" d="M564.248,385.535l-2.646-11.171c-0.67-2.828-3.166-4.806-6.069-4.806c-0.484,0-0.972,0.059-1.444,0.17
			l-11.171,2.646c-1.623,0.385-2.999,1.379-3.874,2.8s-1.145,3.095-0.758,4.714l2.646,11.172c0.672,2.828,3.166,4.803,6.066,4.803
			c0.484,0,0.97-0.057,1.443-0.17l11.174-2.646C562.961,392.252,565.039,388.882,564.248,385.535z M547.749,392.775
			c-0.247,0.059-0.5,0.088-0.751,0.088c-1.505,0-2.8-1.026-3.148-2.494l-2.646-11.174c-0.2-0.842-0.062-1.711,0.394-2.446
			c0.455-0.737,1.168-1.254,2.012-1.453l11.172-2.647c0.248-0.059,0.501-0.088,0.752-0.088c1.507,0,2.802,1.025,3.148,2.496
			l2.647,11.17c0.411,1.738-0.669,3.489-2.406,3.902L547.749,392.775z"/>
		<path fill="#255A8C" d="M532.532,381.251c-0.104-0.435-0.265-0.871-0.496-1.344c-0.957-1.915-2.808-3.188-4.953-3.407
			c-0.696-0.066-1.419-0.034-2.063,0.118l-2.461,0.583c-2.18,0.058-4.14-0.319-5.807-1.077c-2.222-1.009-4.312-2.298-6.214-3.832
			c-1.929-1.558-3.963-3.298-6.045-5.174c-2.154-1.949-4.63-3.634-7.354-5.004c-2.738-1.384-5.912-2.355-9.431-2.89
			c-3.543-0.537-7.831-0.22-12.769,0.947c-3.032,0.721-6.178,2.158-9.351,4.277c-3.19,2.141-5.976,5.113-8.274,8.838
			c-2.291,3.712-3.881,8.304-4.727,13.648c-0.843,5.34-0.404,11.698,1.301,18.896c1.332,5.624,3.521,10.564,6.506,14.688
			c2.989,4.128,6.623,7.461,10.803,9.907c2.238,1.309,4.724,2.398,7.386,3.242c2.209,0.699,4.334,1.188,6.496,1.488
			c1.844,0.256,3.75,0.386,5.666,0.386c0.001,0,0.001,0,0.001,0c1.525,0,3.096-0.082,4.673-0.245
			c0.468-0.05,2.581-0.536,3.274-1.068c1.733-1.342,2.646-3.511,2.435-5.809c-0.026-0.29-0.058-0.62-0.144-0.978l-2.857-12.064
			c-0.088-0.377-0.216-0.695-0.314-0.943c-0.988-2.525-3.371-4.224-5.957-4.224l-0.83,0.085c-1.021,0.104-1.953,0.155-2.848,0.155
			l-0.391-0.004c-2.278-0.039-4.368-0.442-6.213-1.197c-1.807-0.735-3.4-1.874-4.741-3.381c-1.328-1.495-2.291-3.479-2.863-5.897
			c-0.843-3.552-0.542-6.564,0.894-8.953c1.435-2.381,4.257-4.082,8.443-5.076c2.364-0.652,4.44-0.715,6.194-0.183
			c1.854,0.562,3.688,1.476,5.448,2.716c1.847,1.307,3.756,2.778,5.676,4.375c2.023,1.688,4.339,3.228,6.878,4.574
			c1.651,0.876,3.485,1.612,5.614,2.254c1.228,0.361,2.264,0.627,3.264,0.836c3.367,0.688,7.348,0.664,11.84-0.074l2.695-0.637
			l0.118-0.033c2.579-0.842,4.311-3.224,4.306-5.941c-0.006-0.521-0.059-0.984-0.16-1.409L532.532,381.251z M530.157,396.904
			l-2.476,0.588c-4.104,0.669-7.716,0.697-10.695,0.087c-0.913-0.188-1.873-0.437-3.014-0.772c-1.932-0.58-3.588-1.244-5.063-2.027
			c-2.356-1.25-4.498-2.674-6.365-4.229c-1.979-1.647-3.952-3.168-5.864-4.521c-2.024-1.428-4.147-2.481-6.307-3.135
			c-2.296-0.699-4.991-0.633-7.812,0.147c-4.946,1.172-8.4,3.336-10.269,6.435c-1.854,3.086-2.271,6.853-1.241,11.19
			c0.688,2.906,1.879,5.329,3.54,7.2c1.648,1.854,3.617,3.255,5.849,4.164c2.189,0.896,4.645,1.375,7.295,1.421l0.443,0.004
			c0.997,0,2.027-0.056,3.178-0.174c0.197-0.021,0.396-0.042,0.594-0.065c1.309,0.028,2.537,0.952,3.074,2.325
			c0.066,0.169,0.14,0.338,0.184,0.526l2.861,12.076c0.045,0.186,0.057,0.37,0.072,0.558c0.111,1.215-0.352,2.394-1.207,3.098
			c-0.371,0.162-1.522,0.483-1.828,0.52c-1.47,0.15-2.937,0.229-4.358,0.229c0,0,0,0-0.001,0c-1.778,0-3.546-0.12-5.252-0.355
			c-1.993-0.278-3.957-0.729-6.004-1.377c-2.451-0.777-4.731-1.777-6.777-2.973c-3.816-2.235-7.143-5.29-9.887-9.077
			c-2.752-3.802-4.776-8.384-6.016-13.621c-1.617-6.816-2.039-12.785-1.259-17.737c0.784-4.949,2.236-9.169,4.315-12.541
			c2.072-3.354,4.561-6.021,7.392-7.921c2.872-1.918,5.688-3.213,8.373-3.85c3.149-0.746,6.009-1.125,8.497-1.125
			c1.105,0,2.158,0.074,3.129,0.223c3.204,0.486,6.073,1.361,8.529,2.603c2.486,1.251,4.738,2.781,6.695,4.552
			c2.125,1.916,4.201,3.691,6.172,5.281c2.098,1.693,4.404,3.116,6.856,4.229c2.123,0.966,4.581,1.422,7.279,1.342l2.923-0.659
			c0.324-0.076,0.71-0.086,1.068-0.052c1.115,0.113,2.074,0.771,2.564,1.754c0.129,0.263,0.215,0.486,0.266,0.703l2.647,11.176
			c0.052,0.211,0.076,0.447,0.079,0.732C532.343,395.232,531.468,396.452,530.157,396.904z"/>
		<path fill="#255A8C" d="M533.668,200.209c-2.615-0.157-4.82,1.844-4.972,4.418l-0.459,7.74c-0.074,1.255,0.345,2.464,1.181,3.403
			c0.835,0.938,1.984,1.496,3.236,1.568l7.742,0.459c0.093,0.005,0.185,0.008,0.275,0.008c2.486,0,4.547-1.943,4.692-4.423
			l0.46-7.742c0.152-2.588-1.829-4.818-4.416-4.972L533.668,200.209z M542.831,205.464l-0.46,7.742
			c-0.053,0.897-0.799,1.6-1.698,1.6l-7.843-0.462c-0.453-0.026-0.869-0.228-1.171-0.567c-0.304-0.34-0.454-0.777-0.429-1.231
			l0.459-7.741c0.054-0.899,0.799-1.603,1.698-1.603l7.843,0.462C542.168,203.719,542.886,204.527,542.831,205.464z"/>
		<path fill="#255A8C" d="M512.314,268.27c2,2.251,4.713,4.21,8.063,5.824c3.347,1.611,7.606,2.58,12.659,2.878
			c0.675,0.04,1.34,0.06,1.994,0.06c3.199,0,6.215-0.484,8.96-1.44c3.312-1.153,6.231-2.891,8.679-5.166
			c1.307-1.218,2.52-2.641,3.604-4.23c0.896-1.312,1.637-2.614,2.266-3.982c0.956-2.085,1.675-4.363,2.137-6.777
			c0.045-0.237,0.193-1.871-0.08-2.587c-0.59-1.539-1.949-2.663-3.664-3.011c-0.23-0.046-0.465-0.088-0.705-0.103l-8.357-0.495
			c-0.246-0.016-0.482,0-0.741,0.02c-2.034,0.167-3.771,1.525-4.317,3.38l-0.116,0.601c-0.147,0.762-0.316,1.438-0.517,2.067
			c-0.451,1.408-1.089,2.628-1.896,3.628c-0.78,0.966-1.768,1.731-2.936,2.274c-1.151,0.535-2.543,0.759-4.138,0.662
			c-2.362-0.14-4.094-0.846-5.287-2.158c-1.169-1.289-1.68-3.326-1.516-6.11c0.034-1.563,0.37-2.835,1.004-3.785
			c0.694-1.047,1.606-2.018,2.709-2.882c1.183-0.925,2.496-1.867,3.899-2.798c1.517-1,2.987-2.22,4.375-3.625
			c0.906-0.916,1.76-1.983,2.609-3.269c0.479-0.729,0.857-1.359,1.197-1.986c1.127-2.096,1.902-4.734,2.307-7.84l0.119-1.965
			l-0.001-0.062c-0.051-2.042-1.396-3.806-3.36-4.395c-0.373-0.106-0.715-0.168-1.049-0.188l-7.742-0.458
			c-0.349-0.02-0.686,0.001-1.075,0.066c-1.589,0.274-2.909,1.333-3.532,2.834c-0.214,0.517-0.332,1.013-0.361,1.516l-0.099,1.653
			c-0.379,1.332-0.953,2.443-1.709,3.307c-1.058,1.21-2.267,2.284-3.595,3.193c-1.387,0.948-2.9,1.921-4.498,2.891
			c-1.719,1.038-3.322,2.339-4.769,3.867c-1.463,1.541-2.737,3.447-3.788,5.666c-1.062,2.24-1.705,5.141-1.912,8.622
			c-0.129,2.155,0.197,4.526,0.969,7.053C508.893,263.571,510.309,266.01,512.314,268.27z M510.129,254.146
			c0.186-3.095,0.732-5.624,1.63-7.516c0.915-1.932,2.009-3.575,3.255-4.886c1.262-1.333,2.655-2.465,4.144-3.364
			c1.646-0.999,3.208-2.002,4.641-2.981c1.536-1.052,2.937-2.295,4.158-3.694c1.085-1.24,1.889-2.802,2.387-4.643l0.156-2.116
			c0.01-0.165,0.056-0.343,0.14-0.544c0.226-0.544,0.7-0.928,1.264-1.025c0.101-0.017,0.199-0.029,0.361-0.029
			c0.012,0,0.023,0,0.035,0l7.741,0.458c0.11,0.006,0.24,0.031,0.381,0.071c0.687,0.206,1.164,0.819,1.203,1.537l-0.099,1.672
			c-0.356,2.72-1.02,4.992-1.965,6.749c-0.297,0.548-0.637,1.11-1.062,1.763c-0.737,1.114-1.469,2.033-2.237,2.809
			c-1.241,1.257-2.552,2.344-3.896,3.232c-1.473,0.976-2.85,1.964-4.096,2.938c-1.356,1.064-2.486,2.271-3.356,3.583
			c-0.951,1.427-1.458,3.237-1.503,5.324c-0.212,3.563,0.559,6.338,2.292,8.25c1.725,1.895,4.19,2.95,7.329,3.136
			c2.104,0.121,3.973-0.191,5.58-0.936c1.587-0.739,2.935-1.785,4.004-3.11c1.043-1.289,1.857-2.836,2.421-4.601
			c0.237-0.744,0.437-1.533,0.606-2.422l0.066-0.372c0.223-0.643,0.883-1.113,1.682-1.178c0.086-0.007,0.178-0.02,0.297-0.014
			l8.365,0.495c0.101,0.006,0.193,0.029,0.309,0.053c0.625,0.127,1.146,0.517,1.39,1.029c0.019,0.282,0.005,0.899-0.021,1.068
			c-0.416,2.17-1.061,4.217-1.914,6.082c-0.56,1.213-1.219,2.372-2.019,3.543c-0.959,1.406-2.026,2.66-3.17,3.725
			c-2.139,1.989-4.702,3.513-7.62,4.529c-2.934,1.021-6.229,1.433-9.791,1.219c-4.66-0.275-8.543-1.146-11.535-2.586
			s-5.389-3.161-7.123-5.113c-1.719-1.937-2.926-4.003-3.584-6.139C510.307,257.958,510.021,255.942,510.129,254.146z"/>
		<path fill="#255A8C" d="M686.598,125.605l12.187,6.492c1.039,0.552,2.208,0.845,3.379,0.845c2.671,0,5.106-1.463,6.36-3.816
			l6.49-12.187c1.864-3.505,0.531-7.875-2.972-9.742l-12.186-6.49c-1.04-0.553-2.208-0.846-3.38-0.846
			c-2.675,0-5.112,1.464-6.363,3.819l-6.491,12.185c-0.905,1.7-1.093,3.651-0.528,5.493
			C683.656,123.198,684.901,124.707,686.598,125.605z M686.271,117.276l6.491-12.186c0.729-1.375,2.152-2.228,3.714-2.228
			c0.691,0,1.354,0.167,1.971,0.494l12.186,6.49c2.043,1.089,2.821,3.64,1.733,5.685l-6.491,12.186
			c-0.73,1.373-2.153,2.226-3.712,2.226c-0.691,0-1.354-0.167-1.97-0.493l-12.188-6.493c-0.989-0.525-1.715-1.404-2.043-2.476
			C685.633,119.406,685.742,118.268,686.271,117.276z"/>
		<path fill="#255A8C" d="M624.939,208.623c4.123,4.974,10.18,9.606,18,13.77c6.099,3.25,12.26,5.19,18.311,5.769
			c1.464,0.14,2.933,0.211,4.364,0.211c4.486,0,8.874-0.697,13.039-2.072c2.938-0.973,5.876-2.34,8.734-4.062
			c2.368-1.425,4.482-2.945,6.464-4.647c3.029-2.608,5.819-5.691,8.293-9.164c0.297-0.417,1.52-2.686,1.586-3.653
			c0.159-2.525-1.027-4.972-3.213-6.568c-0.267-0.194-0.567-0.415-0.931-0.605l-13.164-7.011c-0.373-0.199-0.728-0.328-1.06-0.448
			c-0.885-0.321-1.803-0.484-2.729-0.484c-2.145,0-4.143,0.882-5.481,2.42l-0.566,0.794c-0.832,1.165-1.636,2.168-2.458,3.07
			c-1.871,2.051-3.926,3.64-6.104,4.722c-2.145,1.065-4.484,1.612-7.012,1.625c-2.438,0-5.023-0.719-7.688-2.139
			c-3.948-2.103-6.479-4.828-7.52-8.099c-1.033-3.266-0.319-7.245,2.146-11.877c1.314-2.706,2.952-4.677,4.872-5.861
			c2.007-1.245,4.32-2.187,6.871-2.797c2.644-0.628,5.498-1.184,8.482-1.65c3.113-0.482,6.321-1.342,9.532-2.556
			c2.079-0.783,4.186-1.844,6.442-3.249c1.293-0.813,2.35-1.533,3.327-2.267c3.266-2.466,6.384-6.053,9.268-10.662l1.558-2.92
			l0.055-0.112c1.235-2.875,0.494-6.189-1.861-8.26c-0.455-0.39-0.893-0.695-1.341-0.935l-12.188-6.486
			c-0.457-0.245-0.96-0.439-1.542-0.596c-2.35-0.625-4.928,0.022-6.727,1.688c-0.635,0.59-1.117,1.206-1.473,1.877l-1.447,2.714
			c-1.737,2.056-3.658,3.566-5.713,4.489c-2.701,1.214-5.552,2.083-8.472,2.583c-2.932,0.503-6.126,0.957-9.491,1.348
			c-3.443,0.392-6.903,1.281-10.282,2.641c-3.396,1.359-6.768,3.434-10.021,6.166c-3.27,2.741-6.371,6.841-9.218,12.185
			c-1.744,3.274-2.935,7.221-3.539,11.735c-0.6,4.544-0.132,9.377,1.389,14.364C617.954,198.594,620.814,203.643,624.939,208.623z
			 M618.02,179.646c0.558-4.156,1.639-7.763,3.215-10.72c2.665-5.002,5.522-8.803,8.498-11.297c3.01-2.528,6.106-4.438,9.21-5.68
			c3.131-1.261,6.327-2.083,9.507-2.445c3.423-0.397,6.672-0.859,9.657-1.371c3.168-0.543,6.261-1.487,9.192-2.804
			c2.512-1.129,4.828-2.953,6.885-5.421l1.693-3.111c0.198-0.374,0.482-0.73,0.864-1.086c0.784-0.726,1.8-1.125,2.858-1.125
			c0.357,0,0.714,0.046,1.054,0.136c0.357,0.097,0.645,0.206,0.903,0.345l12.188,6.486c0.255,0.136,0.509,0.316,0.786,0.553
			c1.349,1.186,1.785,3.091,1.095,4.757l-1.449,2.723c-2.681,4.276-5.542,7.579-8.501,9.813c-0.906,0.681-1.897,1.355-3.112,2.12
			c-2.083,1.295-4.017,2.271-5.91,2.985c-3.02,1.141-6.024,1.948-8.936,2.398c-3.063,0.479-5.997,1.049-8.719,1.696
			c-2.866,0.687-5.476,1.751-7.753,3.165c-2.409,1.486-4.426,3.875-5.968,7.052c-2.834,5.321-3.619,10.08-2.332,14.145
			c1.286,4.046,4.304,7.356,8.968,9.84c3.102,1.653,6.162,2.491,9.167,2.491c2.935-0.015,5.719-0.667,8.275-1.938
			c2.514-1.247,4.864-3.06,6.987-5.387c0.903-0.99,1.78-2.085,2.689-3.358l0.429-0.612c1.125-1.242,3.078-1.686,4.896-1.026
			c0.219,0.079,0.439,0.155,0.655,0.27l13.171,7.015c0.206,0.108,0.385,0.245,0.597,0.399c1.277,0.934,2.023,2.406,1.96,3.85
			c-0.133,0.457-0.815,1.87-1.04,2.186c-2.333,3.275-4.959,6.178-7.805,8.628c-1.853,1.59-3.832,3.014-6.056,4.352
			c-2.67,1.607-5.404,2.881-8.13,3.784c-5.099,1.683-10.537,2.262-16.177,1.723c-5.655-0.541-11.438-2.368-17.186-5.43
			c-7.476-3.979-13.229-8.366-17.102-13.036c-3.869-4.672-6.542-9.372-7.944-13.969C617.909,188.166,617.479,183.759,618.02,179.646
			z"/>
		<path fill="#255A8C" d="M425.287,70.354c-0.538-2.265-2.537-3.847-4.861-3.847c-0.388,0-0.777,0.046-1.156,0.136l-8.244,1.953
			c-1.301,0.308-2.402,1.104-3.104,2.242c-0.699,1.137-0.915,2.479-0.605,3.775l1.953,8.246c0.537,2.264,2.537,3.846,4.859,3.846
			c0.389,0,0.775-0.046,1.155-0.136l8.247-1.953c2.682-0.638,4.346-3.337,3.711-6.018L425.287,70.354z M422.838,81.699l-8.247,1.953
			c-1.069,0.253-2.153-0.428-2.403-1.484l-1.953-8.247c-0.123-0.519-0.037-1.054,0.242-1.508c0.279-0.455,0.721-0.773,1.24-0.896
			l8.245-1.953c0.153-0.037,0.31-0.055,0.464-0.055c0.93,0,1.729,0.634,1.942,1.54l1.952,8.244
			C424.576,80.364,423.909,81.444,422.838,81.699z"/>
		<path fill="#255A8C" d="M403.833,75.434c-0.085-0.354-0.213-0.702-0.396-1.071c-0.767-1.534-2.248-2.555-3.968-2.73
			c-0.558-0.056-1.135-0.027-1.652,0.096l-1.771,0.418l-0.213,0.003c-1.452,0-2.752-0.256-3.866-0.762
			c-1.61-0.731-3.124-1.665-4.5-2.777c-1.414-1.141-2.911-2.421-4.445-3.804c-1.616-1.462-3.472-2.725-5.514-3.752
			c-2.057-1.04-4.439-1.77-7.078-2.17c-2.666-0.406-5.88-0.169-9.572,0.706c-2.283,0.541-4.647,1.621-7.029,3.212
			c-2.404,1.612-4.498,3.847-6.224,6.642c-1.717,2.784-2.908,6.221-3.542,10.218c-0.63,3.992-0.305,8.736,0.966,14.099
			c0.996,4.203,2.632,7.897,4.865,10.98c2.238,3.089,4.96,5.586,8.093,7.421c1.677,0.979,3.538,1.796,5.53,2.428
			c1.649,0.522,3.238,0.886,4.858,1.113c1.379,0.191,2.804,0.289,4.236,0.289c1.14,0,2.312-0.062,3.491-0.183
			c0.245-0.026,1.977-0.38,2.616-0.87c1.386-1.072,2.114-2.803,1.945-4.654c-0.023-0.251-0.052-0.505-0.112-0.755l-2.109-8.903
			c-0.062-0.264-0.153-0.51-0.248-0.75c-0.789-2.014-2.694-3.367-4.765-3.367l-0.651,0.065c-0.742,0.075-1.415,0.112-2.058,0.112
			l-0.285-0.003c-1.632-0.028-3.126-0.315-4.442-0.854c-1.277-0.521-2.406-1.326-3.354-2.393c-0.937-1.055-1.618-2.461-2.024-4.182
			c-0.605-2.553-0.405-4.619,0.614-6.315c1-1.662,3-2.858,5.998-3.569c1.671-0.462,3.13-0.511,4.354-0.137
			c1.327,0.401,2.643,1.057,3.908,1.948c1.356,0.959,2.757,2.04,4.164,3.21c1.515,1.264,3.246,2.415,5.144,3.421
			c1.239,0.658,2.616,1.211,4.216,1.693c0.914,0.27,1.688,0.468,2.441,0.625c2.533,0.518,5.517,0.5,8.88-0.052l2.018-0.475
			l0.117-0.033c2.066-0.674,3.452-2.582,3.449-4.77c-0.007-0.422-0.048-0.78-0.13-1.121L403.833,75.434z M401.589,86.703
			l-1.793,0.426c-2.973,0.483-5.589,0.505-7.735,0.065c-0.667-0.138-1.365-0.317-2.19-0.562c-1.403-0.422-2.603-0.902-3.667-1.468
			c-1.715-0.91-3.273-1.944-4.63-3.076c-1.467-1.221-2.931-2.35-4.354-3.356c-1.53-1.077-3.135-1.874-4.766-2.368
			c-1.766-0.538-3.841-0.488-5.971,0.103c-3.759,0.89-6.391,2.548-7.824,4.928c-1.422,2.369-1.746,5.247-0.962,8.552
			c0.522,2.208,1.431,4.053,2.702,5.484c1.257,1.413,2.758,2.481,4.461,3.176c1.66,0.68,3.519,1.042,5.525,1.077l0.337,0.003
			c0.746,0,1.519-0.042,2.389-0.131l0.403-0.045c0.801,0.027,1.555,0.607,1.892,1.468c0.042,0.107,0.09,0.214,0.119,0.335
			l2.111,8.912c0.027,0.113,0.033,0.226,0.045,0.356c0.068,0.747-0.202,1.469-0.705,1.909c-0.287,0.112-0.988,0.306-1.184,0.333
			c-2.41,0.249-4.765,0.218-7-0.093c-1.45-0.203-2.878-0.531-4.366-1.001c-1.781-0.565-3.438-1.291-4.921-2.158
			c-2.771-1.623-5.186-3.84-7.178-6.591c-1.999-2.761-3.471-6.096-4.375-9.912c-1.18-4.981-1.491-9.335-0.922-12.938
			c0.571-3.602,1.625-6.667,3.132-9.111c1.499-2.428,3.296-4.354,5.339-5.724c2.082-1.391,4.118-2.328,6.052-2.787
			c2.295-0.543,4.374-0.819,6.179-0.819c0.796,0,1.553,0.054,2.25,0.16c2.325,0.353,4.402,0.985,6.178,1.883
			c1.804,0.907,3.436,2.016,4.854,3.299c1.577,1.421,3.116,2.738,4.571,3.912c1.573,1.271,3.304,2.338,5.144,3.174
			c1.622,0.737,3.486,1.079,5.547,1.024l2.237-0.497c0.197-0.046,0.44-0.051,0.658-0.03c0.688,0.07,1.28,0.476,1.581,1.079
			c0.081,0.164,0.135,0.303,0.166,0.435l1.955,8.25c0.029,0.125,0.045,0.274,0.048,0.448
			C402.919,85.673,402.389,86.42,401.589,86.703z"/>
	</g>
</g>
</svg>
